<?xml version="1.0" encoding="utf-8"?><svg viewBox="0 0 40 40" xmlns="http://www.w3.org/2000/svg" xmlns:xlink="http://www.w3.org/1999/xlink"><style>:root>svg{display:none}:root>svg:target{display:block}</style><svg fill="none" viewBox="0 0 40 40" id="facebook" xmlns="http://www.w3.org/2000/svg"><g clip-path="url(#aa)"><path d="M40 20a20 20 0 1 0-23.12 19.76V25.784H11.8V20h5.072v-4.416c0-5.008 2.984-7.784 7.552-7.784 1.498.021 2.993.152 4.472.392v4.928h-2.52c-2.48 0-3.256 1.536-3.256 3.12v3.752h5.544l-.888 5.784H23.12v13.976A20 20 0 0 0 40 20Z" fill="#002E5D"/><path d="M27.784 25.784 28.672 20h-5.544v-3.752c0-1.6.8-3.12 3.256-3.12h2.488V8.2c-1.48-.24-2.974-.37-4.472-.392-4.568 0-7.552 2.776-7.552 7.784V20h-5.08v5.784h5.104V39.76c2.07.32 4.178.32 6.248 0V25.784h4.664Z" fill="#fff"/></g><defs><clipPath id="aa"><path fill="#fff" d="M0 0h40v40H0z"/></clipPath></defs></svg><svg fill="none" viewBox="0 0 40 40" id="instagram" xmlns="http://www.w3.org/2000/svg"><g clip-path="url(#ba)"><path d="M20 40c11.046 0 20-8.954 20-20S31.046 0 20 0 0 8.954 0 20s8.954 20 20 20Z" fill="#002E5D"/><path d="M20 9.672c3.36 0 3.76 0 5.088.08a6.872 6.872 0 0 1 2.336.432c.548.2 1.044.523 1.448.944.419.406.741.901.944 1.448.28.747.426 1.538.432 2.336.064 1.328.072 1.728.072 5.088 0 3.36 0 3.76-.072 5.088a6.873 6.873 0 0 1-.432 2.336 4.192 4.192 0 0 1-2.4 2.4 6.872 6.872 0 0 1-2.336.432c-1.328.064-1.728.072-5.088.072-3.36 0-3.76 0-5.088-.072a6.823 6.823 0 0 1-2.336-.432 3.92 3.92 0 0 1-1.448-.944 3.823 3.823 0 0 1-.944-1.448 6.872 6.872 0 0 1-.432-2.336c-.064-1.328-.072-1.728-.072-5.088 0-3.36 0-3.76.072-5.088a6.824 6.824 0 0 1 .432-2.336 4.191 4.191 0 0 1 2.4-2.4 6.824 6.824 0 0 1 2.336-.432c1.328-.064 1.728-.08 5.088-.08Zm0-2.264c-3.424 0-3.848 0-5.192.072a9.48 9.48 0 0 0-3.056.584c-.839.321-1.6.818-2.232 1.456a6.193 6.193 0 0 0-1.448 2.232 9.248 9.248 0 0 0-.592 3.056c-.056 1.344-.072 1.768-.072 5.192 0 3.424 0 3.848.072 5.192a9.295 9.295 0 0 0 .592 3.056 6.4 6.4 0 0 0 3.68 3.68 9.249 9.249 0 0 0 3.056.592c1.344.056 1.768.072 5.192.072 3.424 0 3.848 0 5.192-.072a9.297 9.297 0 0 0 3.056-.592 6.4 6.4 0 0 0 3.68-3.68 9.297 9.297 0 0 0 .592-3.056c.056-1.344.072-1.776.072-5.192 0-3.416 0-3.848-.072-5.192a9.246 9.246 0 0 0-.592-3.056A6.192 6.192 0 0 0 30.48 9.52a6.328 6.328 0 0 0-2.232-1.456 9.528 9.528 0 0 0-3.056-.584c-1.344-.056-1.776-.072-5.192-.072Z" fill="#fff"/><path d="M20 13.536a6.464 6.464 0 1 0 0 12.928 6.464 6.464 0 0 0 0-12.928ZM20 24.2a4.2 4.2 0 1 1 0-8.4 4.2 4.2 0 0 1 0 8.4ZM26.72 14.792a1.512 1.512 0 1 0 0-3.024 1.512 1.512 0 0 0 0 3.024Z" fill="#fff"/></g><defs><clipPath id="ba"><path fill="#fff" d="M0 0h40v40H0z"/></clipPath></defs></svg><svg fill="none" viewBox="0 0 40 40" id="linkedin" xmlns="http://www.w3.org/2000/svg"><g clip-path="url(#ca)" fill-rule="evenodd" clip-rule="evenodd"><path d="M20 0a20 20 0 1 1 0 40 20 20 0 0 1 0-40Z" fill="#002E5D"/><path d="M8.72 16.192h4.688v15.464H8.72V16.192Zm2.4-7.856a2.736 2.736 0 1 1 0 5.473 2.736 2.736 0 0 1 0-5.473Zm9.512 9.96c3.032-4 11.104-3.592 11.104 4v9.408H27v-8.288c0-4.992-5.952-4-6.152-.2v8.472H16.16V16.192h4.456v2.104h.016Z" fill="#fff"/></g><defs><clipPath id="ca"><path fill="#fff" d="M0 0h40v40H0z"/></clipPath></defs></svg><svg fill="none" viewBox="0 0 40 40" id="telegram" xmlns="http://www.w3.org/2000/svg"><g clip-path="url(#da)"><path d="M20 40c11.046 0 20-8.954 20-20S31.046 0 20 0 0 8.954 0 20s8.954 20 20 20Z" fill="#002E5D"/><path d="M29.736 11.872a.456.456 0 0 0-.312-.336 1.6 1.6 0 0 0-.8.064s-18.688 6.712-19.76 7.456c-.232.16-.304.256-.344.368-.184.528.392.8.392.8l4.8 1.6c.082.02.167.02.248 0 1.096-.696 11.024-6.968 11.6-7.2.088 0 .152 0 .136.064-.232.8-8.856 8.472-8.856 8.472a.558.558 0 0 0-.056.088l-.448 4.8s-.192 1.464 1.272 0a36.695 36.695 0 0 1 2.536-2.32c1.656 1.144 3.44 2.4 4.208 3.072.263.25.614.385.976.376a1.112 1.112 0 0 0 .936-.8s3.4-13.712 3.52-15.544v-.416a1.921 1.921 0 0 0-.048-.544Z" fill="#fff"/></g><defs><clipPath id="da"><path fill="#fff" d="M0 0h40v40H0z"/></clipPath></defs></svg><svg fill="none" viewBox="0 0 40 40" id="viber" xmlns="http://www.w3.org/2000/svg"><g clip-path="url(#ea)"><path d="M20 40c11.046 0 20-8.954 20-20S31.046 0 20 0 0 8.954 0 20s8.954 20 20 20Z" fill="#002E5D"/><path d="M30.808 9.664c-.728-.656-3.664-2.816-10.256-2.856 0 0-7.752-.464-11.528 3.008-2.12 2.12-2.856 5.168-2.928 8.984-.072 3.816-.192 10.952 6.704 12.92v2.968s0 1.192.736 1.424c.968.312 1.504-.616 2.4-1.6a42.164 42.164 0 0 0 1.696-1.928c2.933.277 5.892.058 8.752-.648.96-.312 6.32-1.008 7.2-8.136.928-7.408-.384-12.072-2.816-14.152l.04.016Zm.8 13.6c-.728 5.976-5.088 6.4-5.896 6.592-2.459.6-4.995.821-7.52.656 0 0-2.968 3.592-3.928 4.552a.616.616 0 0 1-.424.192c-.16 0-.192-.232-.192-.496v-4.936c-5.816-1.6-5.472-7.712-5.432-10.912.04-3.2.656-5.784 2.4-7.56 3.2-2.888 9.8-2.464 9.8-2.464 5.552 0 8.208 1.696 8.8 2.272 2.008 1.776 3.048 5.976 2.312 12.104h.08Z" fill="#fff"/><path d="M23.256 19.016a.376.376 0 0 1-.376-.352 1.767 1.767 0 0 0-1.88-1.96.366.366 0 0 1-.352-.392.368.368 0 0 1 .392-.352 2.519 2.519 0 0 1 2.584 2.664.367.367 0 0 1-.352.392h-.016Z" fill="#fff"/><path d="M25.184 19.632a.368.368 0 0 1-.36-.376 4.344 4.344 0 0 0-1.096-3.136 4.648 4.648 0 0 0-3.2-1.424.37.37 0 0 1 .056-.736 5.4 5.4 0 0 1 3.712 1.656 5.096 5.096 0 0 1 1.296 3.656.369.369 0 0 1-.408.36Z" fill="#fff"/><path d="M27.112 20.384a.376.376 0 0 1-.376-.376 7.033 7.033 0 0 0-2.008-5.28 6.832 6.832 0 0 0-4.944-1.944.377.377 0 0 1-.3-.657.377.377 0 0 1 .3-.087 7.567 7.567 0 0 1 5.464 2.152 7.784 7.784 0 0 1 2.232 5.816.376.376 0 0 1-.368.376ZM21.096 23.624a1.056 1.056 0 0 0 .8-.312l.536-.696a1.224 1.224 0 0 1 1.544-.232c.471.264.923.56 1.352.888.424.312 1.272 1 1.272 1a1.056 1.056 0 0 1 .232 1.392 4.8 4.8 0 0 1-1.16 1.384c-.321.3-.72.502-1.152.584h-.16a2.137 2.137 0 0 1-.496-.08 17.15 17.15 0 0 1-3.2-1.464A19.462 19.462 0 0 1 18 24.312a9.707 9.707 0 0 1-1.192-1.08l-.16-.152c-.38-.378-.741-.776-1.08-1.192-.659-.84-1.25-1.73-1.768-2.664a15.253 15.253 0 0 1-1.464-3.2 1.902 1.902 0 0 1-.08-.504v-.152c.065-.435.267-.839.576-1.152a6.311 6.311 0 0 1 1.392-1.16 1.048 1.048 0 0 1 1.384.232s.696.848 1.008 1.272c.312.424.656 1 .88 1.352a1.256 1.256 0 0 1-.192 1.536l-.688.544a1.023 1.023 0 0 0-.312.8 7.096 7.096 0 0 0 4.8 4.8l-.008.032Z" fill="#fff"/></g><defs><clipPath id="ea"><path fill="#fff" d="M0 0h40v40H0z"/></clipPath></defs></svg><svg fill="none" viewBox="0 0 40 40" id="whatsapp" xmlns="http://www.w3.org/2000/svg"><g clip-path="url(#fa)"><path d="M20 40c11.046 0 20-8.954 20-20S31.046 0 20 0 0 8.954 0 20s8.954 20 20 20Z" fill="#002E5D"/><path fill-rule="evenodd" clip-rule="evenodd" d="M29.616 10.624a12.688 12.688 0 0 0-20 15.304l-1.8 6.576 6.728-1.768a12.695 12.695 0 0 0 6.064 1.544 12.695 12.695 0 0 0 12.72-12.696 12.569 12.569 0 0 0-3.712-8.96Zm-8.968 19.512a10.512 10.512 0 0 1-5.368-1.464l-.384-.232-4 1.048L11.96 25.6l-.248-.4a10.552 10.552 0 1 1 8.936 4.936Zm5.784-7.896c-.32-.152-1.88-.92-2.168-1.024-.288-.104-.504-.16-.712.152-.208.312-.8 1.032-1.008 1.248-.208.216-.368.232-.688.08a8.75 8.75 0 0 1-2.544-1.6 9.645 9.645 0 0 1-1.768-2.192.463.463 0 0 1 .144-.648c.136-.144.312-.376.472-.56.13-.16.238-.338.32-.528a.584.584 0 0 0 0-.552c-.08-.16-.712-1.72-.976-2.352-.264-.632-.52-.536-.712-.544h-.608a1.177 1.177 0 0 0-.848.4 3.561 3.561 0 0 0-1.104 2.64 6.223 6.223 0 0 0 1.288 3.28c.16.216 2.24 3.416 5.416 4.8.59.256 1.194.48 1.808.672a4.28 4.28 0 0 0 2 .12 3.198 3.198 0 0 0 2.136-1.504c.204-.473.27-.995.192-1.504-.112-.144-.328-.224-.64-.384Z" fill="#fff"/></g><defs><clipPath id="fa"><path fill="#fff" d="M0 0h40v40H0z"/></clipPath></defs></svg></svg>