<svg width="160" height="40" viewBox="0 0 160 40" fill="none" xmlns="http://www.w3.org/2000/svg">
<g clip-path="url(#clip0_0_73)">
<path d="M7.84801 17.5095C6.42697 17.5388 5.01826 17.2417 3.73119 16.6413C2.52995 16.0488 1.56076 15.0753 0.976225 13.8741C0.327725 12.6081 0.00231808 10.9328 2.00886e-06 8.84815V8.39502C-0.0313801 7.10075 0.173437 5.81155 0.604496 4.59011C0.957064 3.61091 1.53121 2.72563 2.28249 2.00277C2.99851 1.33131 3.85006 0.819534 4.78037 0.501558C5.7678 0.166481 6.80483 -0.000734186 7.84801 0.0069194C8.78566 0.000515428 9.72008 0.116811 10.6273 0.35282C11.449 0.562518 12.2235 0.925179 12.9098 1.42165C13.5691 1.91437 14.1063 2.55098 14.4801 3.2826C14.9136 4.16172 15.1686 5.11736 15.2305 6.09478H10.7003C10.667 5.72685 10.5602 5.36928 10.3859 5.04313C10.2117 4.71699 9.97365 4.42887 9.68581 4.19578C9.15083 3.814 8.50607 3.61498 7.84801 3.6285C7.23571 3.61657 6.63283 3.77984 6.11096 4.09893C5.56402 4.46183 5.14585 4.98711 4.91586 5.60014C4.59249 6.49423 4.44505 7.44196 4.4816 8.39156V8.89658C4.46681 9.6914 4.55793 10.4847 4.75258 11.2556C4.88903 11.8137 5.13977 12.3378 5.48909 12.7949C5.77419 13.1554 6.14407 13.4405 6.56606 13.625C6.97077 13.7942 7.40564 13.8801 7.84454 13.8776C8.54588 13.9095 9.23715 13.702 9.80393 13.2895C10.0722 13.0503 10.2895 12.7598 10.4428 12.4354C10.5962 12.111 10.6826 11.7592 10.6968 11.4009H15.2374C15.1961 12.3872 14.96 13.3557 14.5426 14.2511C14.1779 14.9925 13.6393 15.6355 12.9723 16.1259C12.2879 16.6121 11.5169 16.9643 10.7003 17.1636C9.76842 17.4007 8.80975 17.5169 7.84801 17.5095Z" fill="#0071BC"/>
<path d="M17.6068 17.1705V0.338989H21.9564V6.71049H28.2341V0.338989H32.5837V17.1705H28.2341V10.3182H21.9564V17.1705H17.6068Z" fill="#0071BC"/>
<path d="M34.3485 17.1705L40.5359 0.338989H44.8785L51.0624 17.1705H46.4419L45.2815 13.9502H39.6361L38.5001 17.1705H34.3485ZM40.8833 10.6295H44.0482L42.4779 5.62782L40.8833 10.6295Z" fill="#0071BC"/>
<path d="M52.8238 17.1705V0.338989H57.1734V13.6112H64.4204V17.1705H52.8238Z" fill="#0071BC"/>
<path d="M66.4492 17.1705V0.338989H70.7954V13.6112H78.0562V17.1705H66.4492Z" fill="#0071BC"/>
<path d="M80.0712 17.1705V0.338989H92.3904V3.65618H84.4173V6.95262H91.6643V10.0657H84.4173V13.8533H92.3904V17.1705H80.0712Z" fill="#0071BC"/>
<path d="M94.9995 17.1705V0.338989H98.8384L105.384 9.67832V0.338989H109.976V17.1705H105.87L99.3456 7.83121V17.1705H94.9995Z" fill="#0071BC"/>
<path d="M120.701 17.5095C119.269 17.534 117.851 17.2298 116.556 16.6205C115.324 16.0092 114.315 15.0296 113.669 13.8187C112.961 12.5435 112.606 10.8959 112.606 8.87582V8.39501C112.577 7.11579 112.791 5.8426 113.235 4.64199C113.61 3.65386 114.204 2.76247 114.972 2.03389C115.702 1.35466 116.565 0.834002 117.508 0.505012C118.507 0.162297 119.557 -0.00848517 120.614 -4.14785e-06C121.518 -0.00286296 122.419 0.113447 123.293 0.345897C124.098 0.547637 124.857 0.899778 125.53 1.3836C126.19 1.87539 126.74 2.49853 127.145 3.21342C127.599 4.03091 127.882 4.93079 127.979 5.85956H123.428C123.341 5.34579 123.111 4.86655 122.765 4.47596C122.479 4.17402 122.12 3.95111 121.722 3.82912C121.359 3.71788 120.981 3.66076 120.6 3.65963C119.967 3.64865 119.342 3.80246 118.787 4.10584C118.219 4.44283 117.782 4.9591 117.543 5.57246C117.207 6.47565 117.056 7.4364 117.098 8.39847V8.87928C117.082 9.65384 117.175 10.4268 117.373 11.1761C117.524 11.7321 117.773 12.2569 118.109 12.7257C118.396 13.1125 118.786 13.412 119.235 13.5905C119.7 13.7737 120.197 13.8642 120.697 13.8568C121.273 13.8594 121.844 13.7623 122.386 13.5697C122.91 13.3831 123.372 13.0549 123.72 12.6219C124.084 12.1501 124.28 11.5706 124.276 10.9754H121.184V8.22552H128.334V9.35662C128.365 10.6187 128.172 11.8763 127.764 13.0716C127.429 14.0214 126.884 14.8843 126.169 15.5967C125.488 16.2608 124.661 16.7592 123.755 17.0529C122.768 17.3664 121.737 17.5205 120.701 17.5095Z" fill="#0071BC"/>
<path d="M130.821 17.1705V0.338989H143.14V3.65618H135.167V6.95262H142.414V10.0657H135.167V13.8533H143.14V17.1705H130.821Z" fill="#0071BC"/>
<path d="M145.746 17.1705V0.338984H153.114C154.332 0.297867 155.543 0.534499 156.654 1.03079C157.547 1.45172 158.291 2.13028 158.791 2.97821C159.294 3.89061 159.544 4.91952 159.517 5.95988C159.547 7.05434 159.247 8.13264 158.656 9.05569C158.031 9.95179 157.126 10.6161 156.081 10.9443L159.997 17.1705H155.181L151.919 11.4009H150.109V17.1705H145.746ZM150.095 8.03182H152.149C153.292 8.03182 154.08 7.86579 154.514 7.52681C154.743 7.33835 154.923 7.098 155.039 6.82594C155.155 6.55389 155.204 6.25807 155.181 5.96333C155.203 5.67207 155.155 5.3799 155.041 5.11061C154.928 4.84131 154.752 4.60253 154.528 4.4137C154.094 4.0678 153.305 3.8983 152.162 3.8983H150.109L150.095 8.03182Z" fill="#0071BC"/>
<path d="M0.604492 40V23.1684H8.69569C10.6759 23.1684 12.1165 23.5524 13.0175 24.3203C13.9184 25.0882 14.3701 26.2032 14.3724 27.6652C14.3887 28.4619 14.1449 29.2424 13.6776 29.8893C13.2233 30.5074 12.5907 30.9732 11.8641 31.2245C12.7807 31.4003 13.6107 31.8794 14.2195 32.5839C14.8167 33.3381 15.1213 34.281 15.0776 35.2404C15.102 36.1279 14.8809 37.005 14.4384 37.7759C13.9697 38.5255 13.2702 39.1042 12.4443 39.4258C11.3198 39.8477 10.1224 40.0429 8.9215 40H0.604492ZM4.9506 29.8755H7.63261C8.54978 29.8755 9.17859 29.7337 9.51558 29.4431C9.68801 29.2841 9.82293 29.089 9.91063 28.8719C9.99833 28.6548 10.0366 28.4211 10.0228 28.1875C10.0407 27.9537 10.0056 27.7189 9.92026 27.5004C9.83488 27.2819 9.70133 27.0852 9.52947 26.9249C9.18206 26.6448 8.58104 26.5029 7.68125 26.5029H4.9506V29.8755ZM4.9506 36.6828H7.99392C9.02457 36.6828 9.74139 36.5225 10.1444 36.202C10.3531 36.0214 10.5165 35.7948 10.6214 35.5401C10.7264 35.2854 10.77 35.0098 10.7489 34.7354C10.769 34.4633 10.7233 34.1903 10.6157 33.9394C10.5081 33.6884 10.3417 33.4668 10.1305 33.293C9.72055 32.9724 8.98404 32.8122 7.92096 32.8122H4.9506V36.6828Z" fill="#BCBEC0"/>
<path d="M15.5223 40L21.7062 23.1684H26.0558L32.2397 40H27.633L26.4727 36.7797H20.8203L19.6912 40H15.5223ZM22.0467 33.459H25.2081L23.6378 28.4573L22.0467 33.459Z" fill="#BCBEC0"/>
<path d="M36.3044 40V26.7278H31.1106V23.1684H45.8443V26.7278H40.6505V40H36.3044Z" fill="#BCBEC0"/>
<path d="M52.5841 40V26.7278H47.3729V23.1684H62.1066V26.7278H56.9302V40H52.5841Z" fill="#BCBEC0"/>
<path d="M64.1598 40V23.1684H76.479V26.4856H68.5025V29.7821H75.7494V32.8952H68.5025V36.6724H76.4721V39.9896L64.1598 40Z" fill="#BCBEC0"/>
<path d="M79.0985 40V23.1684H86.4671C87.6836 23.1268 88.8935 23.3634 90.0037 23.8603C90.8964 24.282 91.6417 24.9603 92.1437 25.8077C92.6453 26.7204 92.8947 27.7493 92.8664 28.7893C92.8981 29.8825 92.5992 30.9599 92.0083 31.8817C91.3862 32.7785 90.4815 33.4431 89.4374 33.7703L93.3493 39.9965H88.5203L85.2581 34.2269H83.4481V39.9965L79.0985 40ZM83.4481 30.8613H85.5012C86.6442 30.8613 87.4329 30.6953 87.8671 30.3563C88.0738 30.1527 88.2379 29.9102 88.3499 29.6431C88.4619 29.3759 88.5196 29.0892 88.5196 28.7997C88.5196 28.5102 88.4619 28.2236 88.3499 27.9564C88.2379 27.6892 88.0738 27.4468 87.8671 27.2432C87.4329 26.8973 86.6442 26.7278 85.5012 26.7278H83.4481V30.8613Z" fill="#BCBEC0"/>
<path d="M99.9431 40V33.7011L93.6897 23.1684H98.7133L102.24 29.4189L105.571 23.1684H110.112L104.341 33.7011V40H99.9431Z" fill="#BCBEC0"/>
<path fill-rule="evenodd" clip-rule="evenodd" d="M155.275 27.3746H160L156.422 35.7973H151.707L155.275 27.3746ZM145.068 23.1684H154.514L147.358 40H137.912L145.068 23.1684ZM133.131 23.1684H142.581L135.424 40H125.978L133.131 23.1684ZM121.368 23.1684H130.814L123.661 40H114.215L121.368 23.1684Z" fill="#0071BC"/>
</g>
<defs>
<clipPath id="clip0_0_73">
<rect width="160" height="40" fill="white"/>
</clipPath>
</defs>
</svg>
