<svg width="160" height="25" viewBox="0 0 160 25" fill="none" xmlns="http://www.w3.org/2000/svg">
<g clip-path="url(#clip0_0_97)">
<path d="M156.345 4.17587V1.32016H157.311C158.006 1.32016 158.353 1.61547 158.353 2.21301C158.379 2.38789 158.344 2.5662 158.255 2.71888C158.166 2.87157 158.028 2.9896 157.863 3.05374L158.742 4.19326H158.19L157.339 3.10586H156.842V4.19326L156.345 4.17587ZM157.311 2.61252C157.658 2.61252 157.856 2.47357 157.856 2.19565C157.856 1.91772 157.676 1.7857 157.311 1.7857H156.852V2.61252H157.311ZM157.255 0.350896C157.729 0.351583 158.191 0.492546 158.584 0.755982C158.978 1.01942 159.284 1.39349 159.464 1.83093C159.645 2.26838 159.692 2.74957 159.599 3.21366C159.506 3.67776 159.278 4.10392 158.943 4.43834C158.608 4.77275 158.182 5.00039 157.718 5.09247C157.253 5.18455 156.772 5.13693 156.335 4.95566C155.898 4.77438 155.524 4.46759 155.261 4.07403C154.999 3.68047 154.858 3.21781 154.858 2.74454C154.859 2.42916 154.921 2.11698 155.043 1.82586C155.164 1.53475 155.342 1.27043 155.565 1.04807C155.789 0.825708 156.054 0.649665 156.346 0.530029C156.638 0.410394 156.951 0.349524 157.266 0.350896H157.255ZM157.255 0.00348513C156.713 0.00348513 156.182 0.164439 155.731 0.466014C155.279 0.767588 154.928 1.19623 154.72 1.69773C154.512 2.19923 154.458 2.75106 154.564 3.28345C154.67 3.81584 154.931 4.30488 155.315 4.68872C155.699 5.07255 156.188 5.33394 156.72 5.43984C157.252 5.54573 157.804 5.49137 158.306 5.28364C158.807 5.07592 159.236 4.72415 159.537 4.27282C159.839 3.82148 160 3.29084 160 2.74802C160 2.0216 159.712 1.32473 159.2 0.809777C158.688 0.294822 157.992 0.00368105 157.266 7.62939e-06L157.255 0.00348513Z" fill="#EB1F48"/>
<path d="M136.119 7.92097H154.507V11.138H139.868V12.5033H152.631V15.2826H139.868V16.6479H154.507V19.8649H136.119V7.92097ZM111.637 4.9367H133.222V8.7756H115.851V10.7767H131.043V14.5982H115.855V19.8406H111.637V4.9367ZM103.24 7.92097H106.989V19.8545H103.24V7.92097ZM83.6148 16.0261H100.555V19.8476H79.3972V4.94365H83.6148V16.0261Z" fill="#EB1F48"/>
<path d="M75.3777 0H0V24.8086H75.3777V0Z" fill="#EB1F48"/>
<path d="M5.88513 10.0228H12.1837V17.0301H14.6434V10.0228H20.9419V7.77505H5.88513V10.0228ZM35.8493 12.9237C36.1082 12.6497 36.3105 12.3273 36.4447 11.9749C36.5788 11.6226 36.6421 11.2473 36.631 10.8705C36.6442 10.4475 36.5624 10.027 36.3916 9.63982C36.2209 9.25264 35.9655 8.90865 35.6443 8.63315C34.9877 8.0634 33.9837 7.77505 32.6358 7.77505H22.7658V17.0301H25.2498V14.0145H29.7661L34.147 17.0301H38.2082L33.4695 13.9381C34.5303 13.8131 35.3201 13.4749 35.8389 12.9237M25.2498 11.8467V10.0228H32.5454C32.9561 9.98479 33.3687 10.0707 33.7301 10.2695C33.8306 10.3492 33.9119 10.4505 33.9677 10.566C34.0235 10.6816 34.0525 10.8082 34.0525 10.9365C34.0525 11.0648 34.0235 11.1914 33.9677 11.3069C33.9119 11.4224 33.8306 11.5238 33.7301 11.6035C33.3679 11.7999 32.9557 11.8845 32.5454 11.8467H25.2498ZM45.3684 7.77505L38.2395 17.0301H41.2759L42.391 15.5779H51.0972L52.2123 17.0301H55.1758L48.0573 7.77505H45.3684ZM43.944 13.5525L46.751 9.89773L49.5581 13.5525H43.944ZM61.5507 10.0228H69.4995V7.77505H61.5264C59.5439 7.77505 58.0755 8.20237 57.1213 9.057C56.6687 9.4888 56.3084 10.0079 56.0623 10.583C55.8161 11.158 55.6892 11.7771 55.6892 12.4026C55.6892 13.0281 55.8161 13.6471 56.0623 14.2221C56.3084 14.7972 56.6687 15.3163 57.1213 15.7481C58.0732 16.6028 59.5416 17.0301 61.5264 17.0301H69.4891V14.7823H61.5403C60.3383 14.7823 59.5045 14.5716 59.039 14.15C58.5937 13.6813 58.3455 13.0595 58.3455 12.413C58.3455 11.7665 58.5937 11.1447 59.039 10.6759C59.5022 10.2521 60.336 10.0402 61.5403 10.0402" fill="white"/>
</g>
<defs>
<clipPath id="clip0_0_97">
<rect width="160" height="24.8086" fill="white"/>
</clipPath>
</defs>
</svg>
