<svg width="117" height="40" viewBox="0 0 117 40" fill="none" xmlns="http://www.w3.org/2000/svg">
<g clip-path="url(#clip0_0_109)">
<path d="M53.0848 4.00788C46.9762 0.831686 38.2435 1.66337 31.2099 4.58145C31.0235 4.66032 30.493 6.51011 30.2707 6.57464L30.9877 3.19052C31.0599 2.79706 31.0438 2.39248 30.9407 2.00596C30.8376 1.61944 30.65 1.26063 30.3914 0.955403C30.1329 0.650178 29.8097 0.406162 29.4454 0.240945C29.0811 0.075727 28.6846 -0.00657256 28.2847 -1.51526e-06H0.32267C-0.0788354 -1.51526e-06 0.0287003 0.30829 0.0430397 0.351309C0.437376 1.29055 2.83209 4.10825 8.48902 4.65316C7.92162 4.80657 7.33401 4.87187 6.74678 4.84675C6.72354 4.84499 6.70026 4.8499 6.67973 4.86095C6.65921 4.872 6.6423 4.88872 6.63099 4.90909C6.61967 4.92946 6.61443 4.95265 6.61589 4.97591C6.61735 4.99917 6.62544 5.02153 6.63921 5.04033C7.41354 6.209 9.99464 8.22369 14.741 8.5535C14.1545 8.69652 13.5522 8.76398 12.9486 8.75425C12.9258 8.75453 12.9035 8.76051 12.8837 8.77162C12.8638 8.78274 12.8471 8.79863 12.835 8.81788C12.8229 8.83712 12.8158 8.85911 12.8143 8.88181C12.8129 8.90451 12.8171 8.92722 12.8267 8.94785C13.472 10.1093 15.0565 11.8157 18.8636 12.3893C18.0385 12.4209 17.2123 12.3704 16.3972 12.2388C16.3827 12.2318 16.3668 12.2281 16.3506 12.2281C16.3345 12.2281 16.3186 12.2318 16.304 12.2388C14.4917 13.4326 12.7445 14.7226 11.0701 16.1032C10.7116 16.4044 10.8263 16.8202 11.2995 16.8561L14.1101 17.1715C14.1538 17.1734 14.1958 17.189 14.2301 17.2161C14.2644 17.2433 14.2893 17.2806 14.3013 17.3226C14.3132 17.3647 14.3115 17.4095 14.2965 17.4506C14.2815 17.4917 14.2539 17.527 14.2176 17.5515C7.90826 22.1545 2.27283 29.525 0.0860565 32.7586C0.0481847 32.8158 0.0315673 32.8845 0.0390575 32.9528C0.0465477 33.021 0.0776695 33.0845 0.12706 33.1322C0.176451 33.1799 0.240988 33.2088 0.309455 33.2139C0.377921 33.219 0.446012 33.1999 0.501914 33.1601C8.10901 28.8152 11.7871 27.3812 19.0859 24.5994C19.1684 24.5778 19.2407 24.5281 19.2905 24.4588C19.3402 24.3896 19.3641 24.3051 19.3582 24.2201C19.3522 24.135 19.3167 24.0547 19.2579 23.9931C19.199 23.9314 19.1204 23.8923 19.0357 23.8824L17.1429 23.4881C17.0887 23.4811 17.038 23.4576 16.9977 23.4207C16.9574 23.3839 16.9295 23.3354 16.9177 23.2821C16.9059 23.2288 16.9109 23.1731 16.932 23.1227C16.953 23.0723 16.9891 23.0296 17.0353 23.0005C27.496 16.4259 39.3404 16.6625 40.0789 17.4727C40.1173 17.5116 40.1427 17.5614 40.1516 17.6153C40.1606 17.6692 40.1528 17.7245 40.1291 17.7738C39.3033 19.2148 38.3223 20.5611 37.2038 21.7888L35.691 21.8677C35.6134 21.8685 35.5383 21.895 35.4773 21.943C35.4164 21.991 35.373 22.0578 35.354 22.133C34.9095 23.9541 35.354 24.7499 35.6551 25.173C35.6813 25.2092 35.7145 25.2397 35.7528 25.2626C35.7911 25.2856 35.8337 25.3006 35.8779 25.3066C35.9222 25.3126 35.9672 25.3096 36.0103 25.2977C36.0533 25.2859 36.0935 25.2654 36.1284 25.2375C36.7851 24.7915 37.3826 24.2639 37.9065 23.6673L44.474 18.6485C44.5806 18.5752 44.6596 18.4683 44.6986 18.3449C44.7376 18.2215 44.7342 18.0886 44.689 17.9674C43.2981 14.1387 38.1359 11.5146 38.1359 11.5146C40.2295 8.60369 44.2015 8.23803 45.0762 8.5535C46.7754 9.1701 48.9479 15.4078 48.9479 15.4078C48.974 15.4943 49.0191 15.574 49.0799 15.641C49.1407 15.7079 49.2156 15.7605 49.2992 15.7949C50.0003 15.9368 50.7291 15.8115 51.3425 15.4436C51.5153 15.3693 51.6661 15.2518 51.7803 15.1023C51.8946 14.9529 51.9685 14.7767 51.995 14.5904V5.06901L53.135 4.35204C53.1701 4.33611 53.1999 4.31038 53.2208 4.27795C53.2417 4.24553 53.2528 4.20778 53.2528 4.16921C53.2528 4.13063 53.2417 4.09286 53.2208 4.06044C53.1999 4.02802 53.1701 4.00231 53.135 3.98637" fill="#AE1E23"/>
<path d="M49.5644 22.6707H46.7682C46.7228 22.6717 46.6776 22.6635 46.6354 22.6465C46.5932 22.6296 46.5549 22.6043 46.5227 22.5721C46.4906 22.54 46.4652 22.5016 46.4483 22.4594C46.4313 22.4172 46.4231 22.372 46.4241 22.3266V20.8425C46.4231 20.7967 46.4313 20.7511 46.4482 20.7085C46.4651 20.666 46.4903 20.6272 46.5223 20.5944C46.5544 20.5617 46.5927 20.5357 46.6349 20.518C46.6771 20.5002 46.7224 20.4911 46.7682 20.4911H54.7051C54.7509 20.4911 54.7963 20.5002 54.8385 20.518C54.8807 20.5357 54.919 20.5617 54.9511 20.5944C54.9831 20.6272 55.0083 20.666 55.0252 20.7085C55.0421 20.7511 55.0503 20.7967 55.0493 20.8425V22.3266C55.0503 22.372 55.042 22.4172 55.0251 22.4594C55.0081 22.5016 54.9828 22.54 54.9507 22.5721C54.9185 22.6043 54.8802 22.6296 54.838 22.6465C54.7958 22.6635 54.7506 22.6717 54.7051 22.6707H51.9304V32.8661C51.9268 32.9574 51.8884 33.044 51.8231 33.1079C51.7578 33.1719 51.6705 33.2085 51.5791 33.2103H49.8943C49.8041 33.2067 49.7186 33.1693 49.6548 33.1055C49.591 33.0417 49.5536 32.9562 49.5501 32.8661L49.5644 22.6707Z" fill="black"/>
<path d="M74.2857 20.319C75.5787 20.3162 76.8434 20.6968 77.9201 21.4126C78.9968 22.1284 79.8372 23.1474 80.3349 24.3407C80.8327 25.534 80.9655 26.848 80.7165 28.1168C80.4676 29.3856 79.8481 30.552 78.9363 31.4688C78.0246 32.3855 76.8615 33.0114 75.5942 33.2673C74.3268 33.5232 73.012 33.3976 71.816 32.9064C70.6199 32.4152 69.5964 31.5805 68.8747 30.5077C68.153 29.435 67.7655 28.1723 67.7613 26.8794C67.7565 26.0195 67.9218 25.1673 68.2476 24.3715C68.5733 23.5758 69.0532 22.8523 69.6595 22.2427C70.2658 21.633 70.9867 21.1492 71.7806 20.8191C72.5746 20.489 73.4259 20.319 74.2857 20.319ZM74.2857 31.0378C75.1143 31.0421 75.9254 30.8 76.6161 30.3423C77.3067 29.8847 77.8458 29.2321 78.1648 28.4674C78.4839 27.7027 78.5685 26.8605 78.4079 26.0477C78.2473 25.2349 77.8488 24.4881 77.2629 23.9022C76.677 23.3164 75.9302 22.9178 75.1174 22.7572C74.3046 22.5966 73.4623 22.6812 72.6977 23.0002C71.933 23.3193 71.2804 23.8584 70.8228 24.549C70.3651 25.2397 70.123 26.0508 70.1273 26.8794C70.1348 27.9799 70.5753 29.0333 71.3536 29.8115C72.1318 30.5898 73.1851 31.0303 74.2857 31.0378Z" fill="black"/>
<path d="M80.9321 31.6114L81.8785 30.6507C81.9106 30.609 81.9519 30.5753 81.9991 30.552C82.0463 30.5288 82.0983 30.5168 82.1509 30.5168C82.2035 30.5168 82.2555 30.5288 82.3027 30.552C82.3499 30.5753 82.3912 30.609 82.4234 30.6507C82.5679 30.8296 82.7502 30.9744 82.9571 31.0748C83.1641 31.1752 83.3907 31.2287 83.6207 31.2314C84.3377 31.2314 85.0547 30.6507 85.0547 29.396V20.8425C85.0537 20.7967 85.0619 20.7511 85.0788 20.7085C85.0956 20.666 85.1208 20.6272 85.1529 20.5944C85.185 20.5617 85.2232 20.5357 85.2654 20.518C85.3076 20.5002 85.353 20.4911 85.3988 20.4911H87.1052C87.151 20.4911 87.1963 20.5002 87.2386 20.518C87.2808 20.5357 87.3191 20.5617 87.3511 20.5944C87.3832 20.6272 87.4084 20.666 87.4253 20.7085C87.4421 20.7511 87.4503 20.7967 87.4494 20.8425V29.4103C87.489 29.9289 87.4188 30.4501 87.2433 30.9398C87.0679 31.4294 86.7912 31.8766 86.4313 32.2521C86.0713 32.6276 85.6362 32.923 85.1544 33.119C84.6726 33.315 84.1549 33.4071 83.6351 33.3895C83.1044 33.3927 82.58 33.2749 82.1017 33.0451C81.6234 32.8152 81.2038 32.4794 80.8747 32.0631C80.8264 31.9977 80.8003 31.9185 80.8003 31.8372C80.8003 31.7559 80.8264 31.6768 80.8747 31.6114" fill="black"/>
<path d="M88.7758 32.7371L94.4255 20.5126C94.4523 20.4537 94.4957 20.4039 94.5506 20.3695C94.6054 20.335 94.6691 20.3175 94.7338 20.319H94.9202C94.9862 20.3161 95.0514 20.3338 95.1067 20.3698C95.162 20.4058 95.2046 20.4583 95.2285 20.5198L100.821 32.7442C100.848 32.7951 100.861 32.8524 100.858 32.91C100.856 32.9676 100.838 33.0234 100.806 33.0718C100.775 33.1201 100.731 33.1591 100.679 33.1847C100.628 33.2103 100.57 33.2216 100.513 33.2174H98.9281C98.6557 33.2174 98.5338 33.1027 98.4047 32.8518L97.5157 30.8872H92.081L91.192 32.8518C91.1534 32.9594 91.0822 33.0524 90.9885 33.1179C90.8947 33.1834 90.783 33.2182 90.6686 33.2174H89.0841C89.0266 33.2216 88.969 33.2103 88.9173 33.1847C88.8657 33.1591 88.8218 33.1201 88.7903 33.0718C88.7589 33.0234 88.7409 32.9676 88.7384 32.91C88.7358 32.8524 88.7487 32.7951 88.7758 32.7442M96.6266 28.8725L94.8055 24.879H94.7338L92.9557 28.8725H96.6266Z" fill="black"/>
<path d="M102.47 20.6417C102.47 20.5542 102.505 20.4703 102.567 20.4085C102.628 20.3466 102.712 20.3119 102.8 20.3119H103.065C103.13 20.3117 103.194 20.325 103.253 20.351C103.312 20.3769 103.365 20.4149 103.409 20.4625L110.83 28.3492V20.8425C110.83 20.7505 110.866 20.6622 110.93 20.5965C110.995 20.5308 111.082 20.493 111.174 20.4911H112.845C112.938 20.4911 113.027 20.5281 113.093 20.594C113.159 20.6599 113.196 20.7493 113.196 20.8425V33.031C113.196 33.0743 113.187 33.1172 113.171 33.1572C113.154 33.1972 113.13 33.2336 113.099 33.2642C113.069 33.2948 113.032 33.3191 112.992 33.3357C112.952 33.3523 112.909 33.3608 112.866 33.3608H112.658C112.592 33.3606 112.526 33.3465 112.466 33.3193C112.405 33.2921 112.351 33.2525 112.307 33.2031L104.836 25.0511V32.8661C104.836 32.9574 104.8 33.0449 104.735 33.1095C104.671 33.174 104.583 33.2103 104.492 33.2103H102.843C102.751 33.2103 102.663 33.1742 102.597 33.1099C102.531 33.0456 102.493 32.958 102.492 32.8661L102.47 20.6417Z" fill="black"/>
<path d="M63.7533 28.0695C64.5203 27.8015 65.1879 27.3071 65.6679 26.6517C66.148 25.9963 66.4179 25.2107 66.442 24.3986C66.4325 23.3553 66.01 22.3582 65.2668 21.6258C64.5237 20.8934 63.5205 20.4854 62.4772 20.4911H57.2863C57.2405 20.4911 57.1951 20.5002 57.1529 20.518C57.1107 20.5357 57.0724 20.5617 57.0403 20.5944C57.0083 20.6272 56.9831 20.666 56.9662 20.7085C56.9493 20.7511 56.9411 20.7967 56.9421 20.8425V32.8661C56.9421 32.9574 56.9784 33.0449 57.0429 33.1095C57.1075 33.174 57.195 33.2103 57.2863 33.2103H58.9568C59.0469 33.2067 59.1325 33.1693 59.1962 33.1055C59.26 33.0417 59.2974 32.9562 59.301 32.8661V22.6707H62.2549C62.7223 22.6668 63.1725 22.8463 63.509 23.1707C63.8455 23.4952 64.0414 23.9386 64.0545 24.4058C64.0642 24.8928 63.8814 25.3639 63.5458 25.717C63.2102 26.07 62.7489 26.2764 62.2621 26.2914H61.0576C60.982 26.2904 60.9075 26.309 60.8413 26.3454C60.7751 26.3817 60.7194 26.4346 60.6797 26.4988C60.64 26.5631 60.6176 26.6365 60.6147 26.712C60.6118 26.7875 60.6285 26.8625 60.6632 26.9296L63.7103 33.0453C63.7387 33.0978 63.7814 33.1412 63.8335 33.1703C63.8855 33.1995 63.9447 33.2134 64.0043 33.2103H65.9114C65.9749 33.2138 66.0381 33.1998 66.094 33.1696C66.15 33.1395 66.1964 33.0945 66.2284 33.0395C66.2603 32.9846 66.2764 32.9219 66.2749 32.8584C66.2734 32.7949 66.2543 32.733 66.2197 32.6797L63.7533 28.0695Z" fill="black"/>
<path d="M49.5645 35.6552C49.5644 35.624 49.5763 35.5941 49.5976 35.5714C49.6189 35.5487 49.6481 35.5351 49.6792 35.5333H51.1131C51.2774 35.5206 51.4426 35.541 51.5989 35.5933C51.7552 35.6455 51.8994 35.7286 52.0231 35.8375C52.1467 35.9465 52.2473 36.0791 52.3188 36.2276C52.3903 36.376 52.4314 36.5373 52.4395 36.7019C52.4211 36.9173 52.3447 37.1236 52.2185 37.2991C52.0923 37.4746 51.9209 37.6126 51.7226 37.6985C51.9483 37.7636 52.1482 37.8972 52.2946 38.0809C52.4411 38.2646 52.5268 38.4893 52.5399 38.7238C52.5328 38.8944 52.4912 39.0617 52.4179 39.2159C52.3445 39.37 52.2408 39.5078 52.1129 39.6209C51.9851 39.734 51.8357 39.8202 51.6738 39.8743C51.5118 39.9283 51.3407 39.9491 51.1705 39.9355H49.6433C49.6123 39.9336 49.5831 39.92 49.5618 39.8973C49.5404 39.8747 49.5286 39.8447 49.5286 39.8136L49.5645 35.6552ZM50.9984 37.383C51.0715 37.3831 51.1439 37.3684 51.211 37.3396C51.2782 37.3108 51.3388 37.2686 51.3892 37.2155C51.4395 37.1625 51.4785 37.0998 51.5038 37.0313C51.529 36.9627 51.54 36.8896 51.5361 36.8166C51.5393 36.7455 51.5275 36.6745 51.5014 36.6083C51.4754 36.542 51.4358 36.4819 51.3851 36.4319C51.3345 36.3819 51.2738 36.3431 51.2072 36.318C51.1406 36.2929 51.0695 36.282 50.9984 36.2861H50.3245V37.383H50.9984ZM51.0844 39.197C51.1594 39.197 51.2337 39.1821 51.3029 39.1532C51.372 39.1243 51.4348 39.0819 51.4875 39.0286C51.5402 38.9752 51.5818 38.9119 51.6098 38.8424C51.6379 38.7728 51.6518 38.6984 51.6508 38.6234C51.6345 38.4668 51.5582 38.3226 51.4379 38.2211C51.3176 38.1195 51.1627 38.0684 51.0056 38.0785H50.3245V39.197H51.0844Z" fill="#90959C"/>
<path d="M53.3358 39.7706L55.2931 35.5404C55.302 35.5198 55.3172 35.5024 55.3365 35.4909C55.3558 35.4793 55.3782 35.4741 55.4006 35.4759H55.458C55.4806 35.4729 55.5035 35.4776 55.5231 35.4893C55.5426 35.501 55.5576 35.5191 55.5655 35.5404L57.5014 39.7706C57.5128 39.7881 57.5189 39.8085 57.5189 39.8294C57.5189 39.8502 57.5128 39.8706 57.5014 39.8881C57.49 39.9056 57.4737 39.9194 57.4546 39.9278C57.4355 39.9362 57.4144 39.9389 57.3938 39.9355H56.8489C56.8098 39.9375 56.7712 39.9267 56.7388 39.9047C56.7064 39.8827 56.6821 39.8507 56.6697 39.8136L56.3614 39.1325H54.4829L54.1746 39.8136C54.1583 39.8495 54.1321 39.88 54.0991 39.9016C54.0661 39.9232 54.0276 39.9349 53.9882 39.9355H53.4433C53.4235 39.9362 53.4038 39.9319 53.3862 39.9228C53.3686 39.9137 53.3536 39.9001 53.3428 39.8835C53.3319 39.8669 53.3256 39.8478 53.3244 39.828C53.3231 39.8082 53.3271 39.7884 53.3358 39.7706ZM56.0531 38.437L55.4221 37.0532L54.8055 38.437H56.0531Z" fill="#90959C"/>
<path d="M58.8278 36.2932H57.8599C57.8288 36.2914 57.7996 36.2778 57.7782 36.2551C57.7569 36.2324 57.7451 36.2025 57.7451 36.1713V35.6551C57.7451 35.624 57.7569 35.594 57.7782 35.5714C57.7996 35.5487 57.8288 35.5351 57.8599 35.5332H60.613C60.6441 35.5351 60.6733 35.5487 60.6946 35.5714C60.716 35.594 60.7278 35.624 60.7278 35.6551V36.1713C60.7278 36.2025 60.716 36.2324 60.6946 36.2551C60.6733 36.2778 60.6441 36.2914 60.613 36.2932H59.6451V39.8136C59.6452 39.8447 59.6333 39.8747 59.612 39.8973C59.5907 39.92 59.5615 39.9336 59.5304 39.9355H58.9425C58.9114 39.9336 58.8822 39.92 58.8609 39.8973C58.8396 39.8747 58.8277 39.8447 58.8278 39.8136V36.2932Z" fill="#90959C"/>
<path d="M62.599 36.2932H61.6383C61.6072 36.2914 61.578 36.2778 61.5567 36.2551C61.5354 36.2324 61.5235 36.2025 61.5236 36.1713V35.6551C61.5235 35.624 61.5354 35.594 61.5567 35.5714C61.578 35.5487 61.6072 35.5351 61.6383 35.5332H64.3843C64.4166 35.5332 64.4476 35.5461 64.4705 35.569C64.4933 35.5918 64.5062 35.6228 64.5062 35.6551V36.1713C64.5062 36.2037 64.4933 36.2347 64.4705 36.2575C64.4476 36.2804 64.4166 36.2932 64.3843 36.2932H63.4236V39.8136C63.4236 39.8447 63.4118 39.8747 63.3904 39.8973C63.3691 39.92 63.3399 39.9336 63.3088 39.9355H62.7209C62.6891 39.9337 62.6592 39.9204 62.6367 39.8979C62.6142 39.8754 62.6007 39.8454 62.599 39.8136V36.2932Z" fill="#90959C"/>
<path d="M65.7896 35.6551C65.7896 35.6228 65.8024 35.5918 65.8253 35.569C65.8481 35.5461 65.8791 35.5332 65.9114 35.5332H68.471C68.5021 35.5351 68.5313 35.5487 68.5526 35.5714C68.5739 35.594 68.5858 35.624 68.5858 35.6551V36.1713C68.5858 36.2025 68.5739 36.2324 68.5526 36.2551C68.5313 36.2778 68.5021 36.2914 68.471 36.2932H66.6069V37.3185H68.1627C68.1938 37.3203 68.223 37.334 68.2443 37.3566C68.2656 37.3793 68.2775 37.4093 68.2774 37.4404V37.9638C68.2774 37.9942 68.2654 38.0234 68.2439 38.0449C68.2224 38.0664 68.1932 38.0785 68.1627 38.0785H66.6069V39.1826H68.471C68.5021 39.1845 68.5313 39.1981 68.5526 39.2208C68.5739 39.2434 68.5858 39.2734 68.5858 39.3045V39.8136C68.5858 39.8447 68.5739 39.8747 68.5526 39.8973C68.5313 39.92 68.5021 39.9336 68.471 39.9355H65.9114C65.8954 39.9355 65.8796 39.9323 65.8648 39.9262C65.85 39.9201 65.8366 39.9111 65.8253 39.8998C65.8139 39.8885 65.805 39.875 65.7988 39.8602C65.7927 39.8454 65.7896 39.8296 65.7896 39.8136V35.6551Z" fill="#90959C"/>
<path d="M69.991 35.6551C69.991 35.624 70.0028 35.594 70.0242 35.5714C70.0455 35.5487 70.0747 35.5351 70.1058 35.5332H71.9053C72.2661 35.5332 72.6122 35.6755 72.8686 35.9293C73.1251 36.183 73.271 36.5276 73.2748 36.8883C73.2668 37.1695 73.1734 37.4416 73.0068 37.6684C72.8403 37.8951 72.6087 38.0657 72.3427 38.1574L73.2102 39.7562C73.2228 39.7744 73.2299 39.7957 73.2306 39.8178C73.2313 39.8398 73.2257 39.8616 73.2143 39.8805C73.203 39.8995 73.1864 39.9147 73.1666 39.9244C73.1468 39.9342 73.1246 39.938 73.1027 39.9355H72.4431C72.4223 39.9386 72.4012 39.9346 72.3829 39.9242C72.3647 39.9138 72.3506 39.8976 72.3427 39.8781L71.5038 38.2434H70.7869V39.8423C70.7851 39.874 70.7718 39.904 70.7493 39.9265C70.7268 39.949 70.6968 39.9624 70.665 39.9641H70.0842C70.0532 39.9623 70.024 39.9487 70.0027 39.926C69.9813 39.9033 69.9695 39.8734 69.9695 39.8423L69.991 35.6551ZM71.8337 37.5408C72.0004 37.537 72.1591 37.4681 72.2756 37.3489C72.3922 37.2296 72.4575 37.0695 72.4574 36.9027C72.4537 36.7397 72.3863 36.5847 72.2697 36.4708C72.1532 36.3569 71.9966 36.2932 71.8337 36.2932H70.8156V37.5264L71.8337 37.5408Z" fill="#90959C"/>
<path d="M75.3755 37.8204L73.9416 35.7197C73.9302 35.7014 73.9239 35.6805 73.9232 35.659C73.9225 35.6375 73.9275 35.6162 73.9376 35.5973C73.9478 35.5784 73.9629 35.5625 73.9812 35.5512C73.9995 35.54 74.0205 35.5338 74.042 35.5332H74.6801C74.6999 35.5353 74.719 35.5415 74.7363 35.5514C74.7536 35.5612 74.7686 35.5746 74.7804 35.5906L75.7842 37.0245L76.7951 35.5906C76.8062 35.5739 76.8211 35.56 76.8385 35.5501C76.856 35.5401 76.8755 35.5343 76.8955 35.5332H77.5408C77.5623 35.5338 77.5833 35.54 77.6016 35.5512C77.6199 35.5625 77.6349 35.5784 77.6451 35.5973C77.6553 35.6162 77.6603 35.6375 77.6596 35.659C77.6589 35.6805 77.6525 35.7014 77.6412 35.7197L76.2072 37.8132V39.8136C76.2073 39.8447 76.1954 39.8747 76.1741 39.8973C76.1527 39.92 76.1236 39.9336 76.0925 39.9355H75.5118C75.4794 39.9355 75.4484 39.9226 75.4255 39.8998C75.4027 39.8769 75.3899 39.8459 75.3899 39.8136L75.3755 37.8204Z" fill="#90959C"/>
<path d="M82.8249 35.4759C83.388 35.463 83.9338 35.6715 84.3449 36.0566C84.3572 36.0681 84.3671 36.0819 84.3739 36.0973C84.3806 36.1128 84.3841 36.1294 84.3841 36.1463C84.3841 36.1631 84.3806 36.1798 84.3739 36.1952C84.3671 36.2106 84.3572 36.2245 84.3449 36.2359L83.9648 36.6302C83.9555 36.6421 83.9435 36.6518 83.9298 36.6584C83.9162 36.6651 83.9012 36.6685 83.886 36.6685C83.8708 36.6685 83.8558 36.6651 83.8421 36.6584C83.8285 36.6518 83.8165 36.6421 83.8071 36.6302C83.5385 36.3958 83.1957 36.2637 82.8392 36.2574C82.4522 36.2574 82.0811 36.4111 81.8075 36.6847C81.5339 36.9584 81.3802 37.3295 81.3802 37.7164C81.3802 38.1034 81.5339 38.4745 81.8075 38.7481C82.0811 39.0217 82.4522 39.1755 82.8392 39.1755C83.1914 39.1715 83.5312 39.0447 83.8 38.817C83.822 38.7983 83.8499 38.788 83.8788 38.788C83.9077 38.788 83.9356 38.7983 83.9577 38.817L84.3449 39.2185C84.3676 39.2413 84.3804 39.2723 84.3804 39.3045C84.3804 39.3368 84.3676 39.3677 84.3449 39.3906C83.9366 39.7879 83.3874 40.0071 82.8177 40C82.5099 40.0173 82.2019 39.9717 81.9123 39.8658C81.6228 39.76 81.3579 39.5962 81.1339 39.3844C80.9099 39.1727 80.7315 38.9174 80.6095 38.6343C80.4876 38.3512 80.4247 38.0462 80.4247 37.738C80.4247 37.4297 80.4876 37.1247 80.6095 36.8416C80.7315 36.5585 80.9099 36.3032 81.1339 36.0915C81.3579 35.8797 81.6228 35.7159 81.9123 35.61C82.2019 35.5042 82.5099 35.4586 82.8177 35.4759" fill="#90959C"/>
<path d="M87.349 35.4759C87.7977 35.4731 88.2371 35.6035 88.6116 35.8507C88.9861 36.098 89.2787 36.4508 89.4524 36.8645C89.626 37.2783 89.673 37.7343 89.5872 38.1747C89.5014 38.6151 89.2867 39.0201 88.9705 39.3384C88.6542 39.6567 88.2505 39.8739 87.8106 39.9625C87.3708 40.0511 86.9145 40.0071 86.4997 39.836C86.0848 39.665 85.7302 39.3746 85.4806 39.0017C85.231 38.6288 85.0977 38.1902 85.0977 37.7415C85.0968 37.4449 85.1542 37.1511 85.2669 36.8767C85.3795 36.6023 85.5451 36.3528 85.7541 36.1424C85.9632 35.9321 86.2116 35.7649 86.4853 35.6506C86.7589 35.5362 87.0524 35.4768 87.349 35.4759ZM87.349 39.1827C87.6326 39.1827 87.9099 39.0985 88.1457 38.941C88.3815 38.7834 88.5652 38.5595 88.6738 38.2975C88.7823 38.0354 88.8107 37.7471 88.7554 37.469C88.7001 37.1908 88.5635 36.9353 88.3629 36.7347C88.1624 36.5342 87.9069 36.3976 87.6288 36.3423C87.3506 36.287 87.0623 36.3154 86.8002 36.4239C86.5382 36.5324 86.3143 36.7162 86.1567 36.952C85.9991 37.1879 85.9151 37.4651 85.9151 37.7487C85.9151 38.129 86.0661 38.4937 86.335 38.7627C86.6039 39.0316 86.9687 39.1827 87.349 39.1827Z" fill="#90959C"/>
<path d="M91.1489 35.5691C91.1525 35.5418 91.1664 35.517 91.1878 35.4997C91.2091 35.4823 91.2362 35.4738 91.2636 35.4759H91.364C91.3855 35.4744 91.407 35.4789 91.426 35.4891C91.4451 35.4992 91.4609 35.5145 91.4716 35.5332L92.8482 38.5015L94.2319 35.5332C94.2419 35.5139 94.2576 35.4981 94.2768 35.4879C94.296 35.4776 94.3179 35.4735 94.3395 35.4759H94.4399C94.4673 35.4738 94.4944 35.4823 94.5158 35.4997C94.5371 35.517 94.551 35.5418 94.5546 35.5691L95.2715 39.7921C95.2778 39.8094 95.2796 39.8281 95.2766 39.8463C95.2736 39.8644 95.266 39.8816 95.2544 39.896C95.2429 39.9104 95.2279 39.9216 95.2108 39.9285C95.1937 39.9354 95.1751 39.9378 95.1569 39.9355H94.5904C94.5634 39.9331 94.5376 39.923 94.516 39.9065C94.4944 39.89 94.4779 39.8678 94.4685 39.8423L94.0957 37.4619L92.9916 39.9283C92.9838 39.9503 92.9692 39.9692 92.9498 39.9821C92.9304 39.995 92.9073 40.0013 92.884 40H92.7693C92.747 40.0009 92.725 39.9944 92.7068 39.9814C92.6886 39.9684 92.6753 39.9497 92.6689 39.9283L91.5504 37.4619L91.1848 39.8423C91.1785 39.8682 91.1639 39.8914 91.1432 39.9082C91.1224 39.9251 91.0968 39.9346 91.0701 39.9355H90.5036C90.4858 39.936 90.4682 39.9324 90.452 39.925C90.4358 39.9175 90.4216 39.9064 90.4104 39.8925C90.3993 39.8785 90.3915 39.8622 90.3878 39.8448C90.3841 39.8274 90.3845 39.8093 90.389 39.7921L91.1489 35.5691Z" fill="#90959C"/>
<path d="M96.5549 35.6551C96.5549 35.6228 96.5678 35.5918 96.5906 35.5689C96.6135 35.5461 96.6445 35.5332 96.6768 35.5332H98.1538C98.363 35.4881 98.5796 35.4904 98.7878 35.5398C98.996 35.5893 99.1905 35.6847 99.357 35.8191C99.5235 35.9536 99.6578 36.1235 99.7501 36.3166C99.8423 36.5097 99.8902 36.7209 99.8902 36.9349C99.8902 37.1489 99.8423 37.3602 99.7501 37.5533C99.6578 37.7463 99.5235 37.9163 99.357 38.0507C99.1905 38.1851 98.996 38.2806 98.7878 38.33C98.5796 38.3795 98.363 38.3817 98.1538 38.3366H97.3723V39.8136C97.3706 39.8453 97.3572 39.8754 97.3347 39.8979C97.3122 39.9204 97.2822 39.9337 97.2504 39.9355H96.6768C96.6445 39.9355 96.6135 39.9226 96.5906 39.8998C96.5678 39.8769 96.5549 39.8459 96.5549 39.8136V35.6551ZM98.1036 37.5694C98.189 37.5694 98.2735 37.5525 98.3522 37.5196C98.431 37.4868 98.5024 37.4386 98.5625 37.3779C98.6225 37.3172 98.6698 37.2453 98.7018 37.1661C98.7338 37.087 98.7498 37.0023 98.7489 36.917C98.747 36.8345 98.7288 36.7531 98.6953 36.6776C98.6618 36.6022 98.6136 36.5342 98.5536 36.4775C98.4935 36.4208 98.4229 36.3766 98.3456 36.3474C98.2684 36.3182 98.1861 36.3047 98.1036 36.3076H97.3866V37.5694H98.1036Z" fill="#90959C"/>
<path d="M99.8387 39.7706L101.789 35.5404C101.799 35.5204 101.814 35.5036 101.833 35.4922C101.852 35.4807 101.874 35.4751 101.896 35.4759H101.961C101.983 35.4741 102.006 35.4793 102.025 35.4908C102.044 35.5024 102.06 35.5198 102.068 35.5404L104.004 39.7706C104.013 39.7884 104.017 39.8082 104.016 39.828C104.014 39.8478 104.008 39.8669 103.997 39.8835C103.986 39.9001 103.971 39.9136 103.954 39.9227C103.936 39.9319 103.917 39.9362 103.897 39.9355H103.338C103.297 39.9379 103.258 39.9274 103.224 39.9054C103.19 39.8835 103.165 39.8513 103.151 39.8136L102.843 39.1324H100.964L100.656 39.8136C100.643 39.85 100.618 39.8814 100.586 39.9032C100.554 39.9251 100.516 39.9364 100.477 39.9355H99.9319C99.9113 39.9388 99.8902 39.9362 99.8711 39.9278C99.852 39.9194 99.8357 39.9056 99.8243 39.8881C99.8129 39.8706 99.8068 39.8502 99.8069 39.8293C99.8069 39.8085 99.8129 39.788 99.8243 39.7706M102.534 38.437L101.911 37.0532L101.294 38.437H102.534Z" fill="#90959C"/>
<path d="M104.951 35.5835C104.954 35.5537 104.969 35.5262 104.991 35.5064C105.014 35.4865 105.043 35.4757 105.073 35.4759H105.23L107.847 38.2506V35.6552C107.847 35.6228 107.86 35.5918 107.883 35.569C107.906 35.5461 107.937 35.5333 107.969 35.5333H108.55C108.581 35.5351 108.61 35.5487 108.632 35.5714C108.653 35.5941 108.665 35.624 108.665 35.6552V39.8853C108.665 39.9157 108.653 39.9449 108.631 39.9664C108.61 39.9879 108.58 40 108.55 40H108.399L105.768 37.1321V39.8351C105.768 39.8662 105.756 39.8962 105.735 39.9188C105.714 39.9415 105.684 39.9552 105.653 39.957H105.08C105.048 39.9553 105.018 39.9419 104.995 39.9194C104.973 39.8969 104.96 39.8669 104.958 39.8351L104.951 35.5835Z" fill="#90959C"/>
<path d="M110.909 37.8204L109.475 35.7197C109.463 35.7014 109.457 35.6805 109.456 35.659C109.456 35.6375 109.461 35.6162 109.471 35.5973C109.481 35.5784 109.496 35.5625 109.514 35.5512C109.533 35.54 109.554 35.5338 109.575 35.5332H110.213C110.233 35.5343 110.253 35.5401 110.27 35.5501C110.288 35.56 110.303 35.5739 110.314 35.5906L111.317 37.0245L112.328 35.5906C112.34 35.5739 112.354 35.56 112.372 35.5501C112.389 35.5401 112.409 35.5343 112.429 35.5332H113.074C113.096 35.5338 113.117 35.54 113.135 35.5512C113.153 35.5625 113.168 35.5784 113.178 35.5973C113.189 35.6162 113.194 35.6375 113.193 35.659C113.192 35.6805 113.186 35.7014 113.174 35.7197L111.74 37.8132V39.8136C111.739 39.8454 111.725 39.8754 111.703 39.8979C111.68 39.9204 111.65 39.9337 111.619 39.9355H111.038C111.007 39.9336 110.978 39.92 110.956 39.8973C110.935 39.8747 110.923 39.8447 110.923 39.8136L110.909 37.8204Z" fill="#90959C"/>
<path d="M115.612 20.5055C115.821 20.5041 116.026 20.5648 116.2 20.6801C116.375 20.7954 116.511 20.9599 116.592 21.1528C116.672 21.3456 116.694 21.5582 116.653 21.7633C116.613 21.9684 116.512 22.1568 116.365 22.3047C116.217 22.4525 116.028 22.553 115.823 22.5935C115.618 22.6339 115.405 22.6124 115.213 22.5318C115.02 22.4511 114.855 22.3149 114.74 22.1405C114.625 21.9661 114.564 21.7613 114.565 21.5523C114.567 21.2752 114.678 21.01 114.874 20.8141C115.07 20.6182 115.335 20.5074 115.612 20.5055ZM115.612 22.3768C115.775 22.3782 115.936 22.331 116.072 22.2413C116.209 22.1516 116.315 22.0233 116.379 21.8728C116.442 21.7222 116.46 21.5562 116.429 21.3958C116.398 21.2354 116.32 21.0878 116.205 20.9718C116.09 20.8558 115.943 20.7765 115.783 20.7441C115.623 20.7118 115.457 20.7276 115.305 20.7898C115.154 20.852 115.025 20.9577 114.934 21.0934C114.843 21.2292 114.795 21.3889 114.795 21.5523C114.794 21.6602 114.814 21.7673 114.855 21.8672C114.896 21.9672 114.956 22.0582 115.032 22.1348C115.108 22.2115 115.198 22.2724 115.298 22.3139C115.397 22.3554 115.504 22.3768 115.612 22.3768ZM115.218 21.0719C115.219 21.0572 115.226 21.0435 115.236 21.0331C115.247 21.0226 115.26 21.0161 115.275 21.0145H115.727C115.775 21.0135 115.822 21.0223 115.867 21.0404C115.911 21.0585 115.952 21.0856 115.985 21.1198C116.019 21.1541 116.045 21.1949 116.062 21.2396C116.079 21.2844 116.087 21.3323 116.085 21.3802C116.088 21.4479 116.071 21.5149 116.035 21.5725C115.999 21.6301 115.947 21.6755 115.885 21.7028L116.014 22.004C116.02 22.0121 116.023 22.0219 116.023 22.032C116.024 22.0421 116.021 22.052 116.015 22.0605C116.01 22.069 116.002 22.0757 115.993 22.0797C115.984 22.0837 115.973 22.0848 115.963 22.0828H115.806C115.798 22.0866 115.789 22.0886 115.781 22.0886C115.772 22.0886 115.763 22.0866 115.756 22.0828L115.626 21.753H115.476V22.0685C115.476 22.0757 115.474 22.0829 115.471 22.0895C115.469 22.0961 115.464 22.102 115.459 22.1068C115.453 22.1115 115.447 22.1151 115.44 22.1171C115.433 22.1192 115.426 22.1197 115.419 22.1187H115.275C115.261 22.1188 115.247 22.1137 115.237 22.1045C115.226 22.0952 115.22 22.0824 115.218 22.0685V21.0719ZM115.698 21.5021C115.714 21.5031 115.731 21.5007 115.746 21.4949C115.761 21.4892 115.775 21.4803 115.787 21.4687C115.798 21.4572 115.807 21.4433 115.813 21.428C115.819 21.4128 115.821 21.3965 115.82 21.3802C115.82 21.3645 115.817 21.349 115.811 21.3346C115.804 21.3202 115.795 21.3072 115.784 21.2964C115.773 21.2857 115.759 21.2774 115.744 21.2721C115.73 21.2667 115.714 21.2645 115.698 21.2655H115.469V21.5021H115.698Z" fill="black"/>
</g>
<defs>
<clipPath id="clip0_0_109">
<rect width="116.666" height="40" fill="white"/>
</clipPath>
</defs>
</svg>
