<svg width="160" height="25" viewBox="0 0 160 25" fill="none" xmlns="http://www.w3.org/2000/svg">
<g clip-path="url(#clip0_0_92)">
<path d="M75.3777 0H0V24.8H75.3777V0Z" fill="#0FAB4D"/>
<path d="M61.2659 15.6211C61.9966 15.6397 62.7264 15.5555 63.4337 15.3711C63.9206 15.2395 64.3725 15.0023 64.7574 14.6765C65.0711 14.404 65.3041 14.0509 65.4313 13.6554C65.6815 12.8265 65.6815 11.9422 65.4313 11.1133C65.3041 10.7178 65.0711 10.3647 64.7574 10.0922C64.3725 9.76641 63.9206 9.52927 63.4337 9.39766C62.7264 9.21322 61.9966 9.12905 61.2659 9.14763H55.8219C55.0878 9.12958 54.3547 9.21373 53.6437 9.39766C53.1514 9.52872 52.6937 9.76578 52.3027 10.0922C51.9785 10.3595 51.7375 10.7137 51.6079 11.1133C51.353 11.9415 51.353 12.8272 51.6079 13.6554C51.7323 14.0514 51.9644 14.4049 52.2784 14.6765C52.6663 15.0037 53.1219 15.2409 53.6124 15.3711C54.3233 15.5554 55.0565 15.6396 55.7907 15.6211H61.2659ZM55.8011 18.8474C54.536 18.8749 53.2744 18.7026 52.063 18.3369C51.1349 18.0514 50.2753 17.5786 49.5373 16.9478C48.9035 16.3943 48.4145 15.6945 48.1129 14.9092C47.5148 13.2838 47.5148 11.4988 48.1129 9.87345C48.4145 9.08809 48.9035 8.38827 49.5373 7.83486C50.2753 7.20405 51.1349 6.73126 52.063 6.4457C53.2744 6.08006 54.536 5.90778 55.8011 5.93519H61.2832C62.5473 5.90774 63.8077 6.08002 65.0179 6.4457C65.9463 6.73043 66.8061 7.20332 67.5436 7.83486C68.1774 8.38827 68.6664 9.08809 68.968 9.87345C69.5661 11.4988 69.5661 13.2838 68.968 14.9092C68.6664 15.6945 68.1774 16.3943 67.5436 16.9478C66.8061 17.5793 65.9463 18.0522 65.0179 18.3369C63.8077 18.7026 62.5473 18.8749 61.2832 18.8474H55.8011ZM30.2525 12.3983C30.2486 12.8051 30.306 13.2101 30.4228 13.5999C30.5365 13.974 30.7532 14.3085 31.0481 14.5653C31.4129 14.8712 31.8414 15.0918 32.3022 15.2113C32.9832 15.3838 33.6845 15.4621 34.3867 15.444H45.1877V18.6668H34.3554C33.1268 18.6951 31.9015 18.5287 30.725 18.1737C29.83 17.8989 29.0019 17.4412 28.2931 16.8297C27.6753 16.2861 27.1985 15.6009 26.9035 14.8328C26.3175 13.265 26.3175 11.5385 26.9035 9.9707C27.1985 9.20259 27.6753 8.5174 28.2931 7.97378C29.0019 7.36228 29.83 6.90461 30.725 6.62977C31.9015 6.27481 33.1268 6.10835 34.3554 6.1366H45.1738V9.35947H34.3728C33.6706 9.34134 32.9692 9.41963 32.2883 9.59215C31.8275 9.71161 31.399 9.93228 31.0342 10.2381C30.7393 10.4949 30.5226 10.8295 30.4089 11.2036C30.2975 11.5918 30.2448 11.9945 30.2525 12.3983ZM5.81218 6.14703H23.9609V9.36987H9.36967V10.9605H22.1231V13.8291H9.35925V15.4405H23.9505V18.6634H5.81218V6.14703Z" fill="white"/>
<path d="M156.345 4.17444V1.29886H157.311C158.006 1.29886 158.353 1.59754 158.353 2.19488C158.379 2.36969 158.344 2.54794 158.255 2.70057C158.166 2.8532 158.028 2.9712 157.863 3.03531L158.742 4.17444H158.19L157.339 3.08742H156.842V4.17444H156.345ZM157.311 2.61163C157.658 2.61163 157.856 2.47271 157.856 2.19488C157.856 1.91704 157.676 1.78508 157.311 1.78508H156.852V2.62551L157.311 2.61163ZM157.255 0.350767C157.729 0.351453 158.191 0.492368 158.584 0.755712C158.978 1.01906 159.284 1.393 159.464 1.83029C159.645 2.26758 159.692 2.74861 159.599 3.21254C159.506 3.67648 159.278 4.10252 158.943 4.43681C158.608 4.77111 158.182 4.99865 157.718 5.09069C157.253 5.18274 156.772 5.13516 156.335 4.95395C155.898 4.77274 155.524 4.46603 155.261 4.07261C154.999 3.67918 154.858 3.21671 154.858 2.7436C154.858 2.4282 154.921 2.11589 155.042 1.82467C155.163 1.53345 155.341 1.26906 155.564 1.04668C155.788 0.824305 156.054 0.648336 156.346 0.528905C156.638 0.409475 156.95 0.348935 157.266 0.350767H157.255ZM157.255 0.00347629C156.713 0.00347629 156.182 0.164375 155.731 0.465845C155.279 0.767315 154.928 1.1958 154.72 1.69713C154.512 2.19846 154.458 2.75012 154.564 3.28232C154.67 3.81453 154.931 4.30338 155.315 4.68708C155.699 5.07078 156.188 5.33208 156.72 5.43794C157.252 5.5438 157.804 5.48946 158.306 5.28181C158.807 5.07415 159.236 4.72251 159.537 4.27133C159.839 3.82015 160 3.28969 160 2.74706C160 2.02089 159.712 1.32427 159.2 0.809489C158.688 0.294712 157.992 0.00367215 157.266 0L157.255 0.00347629Z" fill="#0FAB4D"/>
<path d="M136.119 7.92517H154.507V11.1411H139.868V12.5059H152.631V15.2842H139.868V16.6491H154.507V19.865H136.119V7.92517ZM111.637 4.94193H133.222V8.76213H115.851V10.766H131.043V14.5862H115.855V19.8268H111.637V4.94193ZM103.24 7.92517H106.989V19.8546H103.24V7.92517ZM83.6148 16.0205H100.555V19.8407H79.3972V4.94193H83.6148V16.0205Z" fill="#0FAB4D"/>
</g>
<defs>
<clipPath id="clip0_0_92">
<rect width="160" height="24.8" fill="white"/>
</clipPath>
</defs>
</svg>
