<svg width="160" height="25" viewBox="0 0 160 25" fill="none" xmlns="http://www.w3.org/2000/svg">
<g clip-path="url(#clip0_0_102)">
<path d="M156.359 4.17935V1.30278H157.328C158.023 1.30278 158.371 1.60154 158.371 2.19908C158.396 2.37398 158.361 2.55243 158.272 2.70472C158.182 2.85702 158.043 2.97402 157.877 3.03636L158.76 4.17935H158.204L157.356 3.09195H156.856V4.17935H156.359ZM157.328 2.61252C157.676 2.61252 157.874 2.47354 157.874 2.19908C157.874 1.92463 157.69 1.78916 157.328 1.78916H156.866V2.61252H157.328ZM157.269 0.350878C157.744 0.35019 158.207 0.490183 158.602 0.753165C158.997 1.01615 159.305 1.39031 159.487 1.82826C159.668 2.26622 159.716 2.74831 159.624 3.21354C159.532 3.67877 159.304 4.10622 158.969 4.44182C158.634 4.77741 158.207 5.00603 157.742 5.09881C157.277 5.19159 156.795 5.14435 156.356 4.96302C155.918 4.78169 155.544 4.47444 155.28 4.08016C155.016 3.68588 154.876 3.22228 154.876 2.74802C154.875 2.11498 155.125 1.50733 155.571 1.05808C156.017 0.608831 156.622 0.354552 157.255 0.350878H157.269ZM157.269 0.00346694C156.726 0.00277964 156.194 0.163376 155.742 0.464914C155.289 0.766452 154.937 1.1954 154.728 1.69748C154.52 2.19955 154.465 2.75217 154.57 3.28546C154.676 3.81876 154.937 4.30872 155.322 4.69338C155.706 5.07805 156.195 5.34012 156.729 5.44643C157.262 5.55275 157.814 5.49855 158.317 5.29067C158.819 5.08278 159.248 4.73053 159.551 4.27854C159.853 3.82656 160.014 3.29515 160.014 2.7515C160.015 2.38932 159.944 2.03052 159.806 1.69582C159.667 1.36113 159.464 1.05716 159.208 0.801383C158.951 0.545609 158.647 0.343126 158.312 0.205586C157.977 0.0680464 157.618 -0.00184554 157.255 -1.05599e-05L157.269 0.00346694Z" fill="#1B4A8F"/>
<path d="M136.119 7.93136H154.511V11.1484H139.871V12.5103H152.635V15.2895H139.871V16.6375H154.511V19.8545H136.119V7.93136ZM111.637 4.94712H133.222V8.76864H115.851V10.7732H131.047V14.5947H115.855V19.8337H111.637V4.94712ZM103.24 7.93136H106.992V19.8615H103.24V7.93136ZM83.6148 16.0261H100.558V19.8476H79.3972V4.93325H83.6148V16.0261Z" fill="#1B4A8F"/>
<path d="M75.3777 0H0V24.8086H75.3777V0Z" fill="#1B4A8F"/>
<path d="M61.0123 5.93375H57.2359L47.2722 18.8783H51.5106L53.0705 16.8425H65.2646L66.8245 18.8783H70.9725L61.0123 5.93375ZM55.2626 14.0145L59.1884 8.89718L63.1141 14.0145H55.2626Z" fill="white"/>
<path d="M26.8097 5.9303H45.5421V9.25849H30.4714V10.9226H43.6556V13.8825H30.4714V15.5466H45.5421V18.8748H26.8097V5.9303Z" fill="white"/>
<path d="M19.25 10.7802H8.76516C7.65692 10.7802 7.65692 10.1618 7.65692 9.96027C7.65692 9.56075 7.65692 9.18208 9.04656 9.18208H22.8874V5.93375H9.03614C6.13526 5.93375 4.40515 7.43807 4.40515 9.96027C4.40515 12.7396 6.6668 14.0319 8.76516 14.0319H19.25C20.3548 14.0319 20.3548 14.6468 20.3548 14.8518C20.3548 15.2479 20.3548 15.6265 18.9651 15.6265H5.13472V18.8783H18.9756C21.8764 18.8783 23.6065 17.3705 23.6065 14.8518C23.6065 12.0551 21.3484 10.7802 19.25 10.7802Z" fill="white"/>
</g>
<defs>
<clipPath id="clip0_0_102">
<rect width="160" height="24.8086" fill="white"/>
</clipPath>
</defs>
</svg>
