<svg width="450" height="113" viewBox="0 0 450 113" fill="none" xmlns="http://www.w3.org/2000/svg">
<g clip-path="url(#clip0_0_4)">
<path d="M167.893 70.5298L149.925 18.9137H162.233L175.306 60.5412L188.118 18.9137H200.27L182.51 70.5298H167.893Z" fill="#002E5D"/>
<path d="M217.63 71.1225C214.212 71.1838 210.833 70.3805 207.804 68.7865C204.952 67.2452 202.611 64.9003 201.069 62.0404C199.357 58.7719 198.514 55.1155 198.621 51.4243C198.508 47.6616 199.363 43.9332 201.103 40.5991C202.652 37.7172 204.989 35.3402 207.839 33.7483C210.799 32.1356 214.124 31.319 217.492 31.3775C220.867 31.32 224.198 32.162 227.144 33.818C229.958 35.4774 232.254 37.8922 233.776 40.7908C235.369 44.1259 236.205 47.7746 236.223 51.4736C236.241 55.1725 235.441 58.8293 233.88 62.1798C232.413 65.0073 230.141 67.3317 227.352 68.8563C224.355 70.4259 221.01 71.2057 217.63 71.1225ZM217.422 60.4018C219.084 60.4867 220.729 60.028 222.109 59.0944C223.245 58.2388 224.107 57.0698 224.592 55.73C225.077 54.3769 225.323 52.9494 225.321 51.5115C225.308 50.0335 225.056 48.5676 224.575 47.1709C224.109 45.7627 223.262 44.5129 222.127 43.5625C220.733 42.6308 219.096 42.1337 217.422 42.1337C215.748 42.1337 214.111 42.6308 212.717 43.5625C211.575 44.4699 210.704 45.6763 210.2 47.0489C209.696 48.4641 209.437 49.956 209.436 51.4592C209.434 52.9148 209.705 54.3578 210.235 55.7126C210.732 57.0548 211.607 58.2234 212.752 59.077C214.114 60.0104 215.74 60.4752 217.387 60.4018H217.422Z" fill="#002E5D"/>
<path d="M241.935 70.5298V18.9137H253.046V70.5298H241.935Z" fill="#002E5D"/>
<path d="M277.42 70.5297C274.698 70.5958 271.984 70.2191 269.382 69.4141C267.304 68.7361 265.532 67.3402 264.382 65.4745C263.109 63.0398 262.51 60.3068 262.646 57.5604V42.3945H257.334V32.1097H262.768V22.1909H273.878V32.1097H281.222V42.3945H273.878V55.8869C273.838 56.9508 274.052 58.0088 274.503 58.9723C274.92 59.7742 275.996 60.1752 277.732 60.1752H280.875V70.5297H277.42Z" fill="#002E5D"/>
<path d="M287.072 70.5297V18.9137H307.141C310.561 18.84 313.962 19.4319 317.158 20.6569C319.951 21.7714 322.308 23.7654 323.876 26.3397C325.631 29.6034 326.465 33.286 326.29 36.9907C326.421 40.6185 325.524 44.2092 323.703 47.3452C322.024 50.0727 319.56 52.2244 316.637 53.5162C313.412 54.8951 309.934 55.5781 306.429 55.5208H298.391V70.5297H287.072ZM298.391 45.0094H306.429C308.719 45.132 310.974 44.4063 312.766 42.9698C313.574 42.2107 314.204 41.2802 314.61 40.2459C315.015 39.2116 315.186 38.0995 315.109 36.9907C315.163 36.0268 315.013 35.0624 314.669 34.161C314.325 33.2596 313.795 32.4417 313.113 31.7611C311.215 30.3996 308.888 29.7798 306.568 30.0179H298.391V45.0094Z" fill="#002E5D"/>
<path d="M345.16 71.1224C343.501 71.1314 341.85 70.8845 340.265 70.3903C338.768 69.9336 337.371 69.194 336.15 68.2113C334.933 67.2262 333.948 65.9818 333.268 64.568C332.489 62.6945 332.139 60.6691 332.244 58.6414C332.349 56.6137 332.907 54.6357 333.876 52.8537C334.976 51.2268 336.527 49.96 338.338 49.2104C340.406 48.3645 342.589 47.8356 344.813 47.6416C347.323 47.3928 349.843 47.2706 352.365 47.2755H355.837C355.859 46.1814 355.634 45.0965 355.177 44.1029C354.738 43.2056 354.043 42.4595 353.181 41.9587C352.182 41.3925 351.046 41.115 349.9 41.1569C349.01 41.1442 348.124 41.2797 347.278 41.5578C346.538 41.7818 345.848 42.1489 345.247 42.6386C344.716 43.093 344.34 43.7024 344.171 44.3818H333.043C333.303 42.2972 334.007 40.2935 335.109 38.5072C336.113 36.9118 337.452 35.5555 339.032 34.5327C340.63 33.4833 342.39 32.7059 344.24 32.2317C346.202 31.7218 348.22 31.4641 350.247 31.4647C355.64 31.4647 359.691 33.0452 362.399 36.2062C365.055 39.3614 366.392 43.946 366.392 49.9252V70.5297H356.254V65.5093C355.295 67.1494 353.924 68.5079 352.278 69.449C350.971 70.1623 349.549 70.6402 348.077 70.8609C347.111 71.0069 346.137 71.0942 345.16 71.1224ZM347.955 62.145C349.319 62.159 350.664 61.823 351.861 61.1688C353.03 60.5496 354.049 59.6809 354.847 58.6237C355.588 57.6464 355.991 56.4527 355.993 55.2245V54.6492H349.049C348.318 54.6424 347.586 54.6891 346.862 54.7887C346.196 54.8722 345.547 55.0543 344.935 55.3291C344.37 55.5948 343.901 56.0283 343.591 56.5709C343.28 57.1135 343.143 57.7389 343.199 58.3622C343.173 59.104 343.393 59.8333 343.824 60.4366C344.272 61.0162 344.873 61.4572 345.56 61.7092C346.323 62.0081 347.136 62.1561 347.955 62.145Z" fill="#002E5D"/>
<path d="M390.176 71.1225C386.805 71.2157 383.471 70.3969 380.524 68.7517C377.811 67.1548 375.635 64.7816 374.274 61.9358C372.803 58.6007 372.043 54.9935 372.043 51.3459C372.043 47.6983 372.803 44.091 374.274 40.7559C375.683 37.8577 377.903 35.4346 380.662 33.7832C383.649 32.1031 387.031 31.2602 390.454 31.3427C393.334 31.2713 396.191 31.8678 398.804 33.0859C401.193 34.2181 403.224 35.9918 404.672 38.2109C406.215 40.6889 407.072 43.535 407.154 46.4562H396.443C396.187 45.0681 395.426 43.8253 394.308 42.9698C393.191 42.2006 391.859 41.8098 390.506 41.8542C388.869 41.758 387.256 42.2874 385.992 43.3359C384.905 44.3361 384.107 45.6131 383.683 47.0315C383.256 48.421 383.034 49.8657 383.023 51.3197C383.016 52.8378 383.262 54.3463 383.753 55.7823C384.192 57.1512 385.019 58.3624 386.131 59.2687C387.35 60.1855 388.845 60.6533 390.367 60.5935C391.792 60.6334 393.194 60.2251 394.377 59.4256C395.513 58.5857 396.278 57.3355 396.512 55.9392H407.554C407.527 58.9117 406.614 61.808 404.932 64.2542C403.342 66.4796 401.183 68.2323 398.683 69.327C396.003 70.5164 393.105 71.1281 390.176 71.1225Z" fill="#002E5D"/>
<path d="M412.953 70.5298V18.9137H424.081V46.247H428.265L436.65 32.1097H449.097L437.501 50.4133L450 70.5298H437.205L428.525 56.5842H423.994V70.5298H412.953Z" fill="#002E5D"/>
<path d="M112.496 0.0174255V112.959H45.8489L57.7061 98.8393H98.4337V14.1199H83.6773L93.1388 0.0174255H112.496Z" fill="#002E5D"/>
<path d="M19.9645 112.959H0V0L66.8203 0.017432L55.1715 14.1199H14.062V98.8393H29.3044L19.9645 112.959Z" fill="#002E5D"/>
<path d="M86.9758 0.104584L53.7306 49.6114H92.6353L39.5124 113.046H25.5025L58.7477 63.7313C45.6927 63.7313 32.8286 63.7313 19.8256 63.7313L72.9659 0.104584H86.9758Z" fill="#D50032"/>
<path d="M168.726 98.1943V86.4452H171.834V90.9426H173.57L176.434 86.4452H179.906L176.243 91.9711L179.924 98.1943H176.347L173.709 93.7317H171.764V98.1943H168.726Z" fill="#D50032"/>
<path d="M195.183 98.3512C194.094 98.3891 193.014 98.1301 192.059 97.6016C191.206 97.126 190.516 96.403 190.08 95.5272C189.616 94.5313 189.376 93.4452 189.376 92.3459C189.376 91.2465 189.616 90.1605 190.08 89.1645C190.541 88.2773 191.238 87.5354 192.093 87.0204C193.026 86.4808 194.09 86.2094 195.166 86.236C195.965 86.2226 196.757 86.377 197.492 86.6892C198.158 86.962 198.752 87.3856 199.228 87.9269C199.704 88.4633 200.065 89.0923 200.287 89.7747C200.533 90.5159 200.644 91.2951 200.617 92.0757C200.617 92.2849 200.617 92.494 200.617 92.6858C200.634 92.8772 200.634 93.0697 200.617 93.2611H192.597C192.639 93.6898 192.769 94.1052 192.979 94.4813C193.179 94.8538 193.48 95.1619 193.847 95.3703C194.287 95.5935 194.777 95.7014 195.27 95.6841C195.61 95.6896 195.949 95.6486 196.277 95.5621C196.57 95.4988 196.843 95.3674 197.076 95.1786C197.29 95.0202 197.453 94.8019 197.544 94.551H200.617C200.463 95.3572 200.091 96.1052 199.541 96.7126C199.016 97.2773 198.36 97.7026 197.631 97.9503C196.846 98.2303 196.017 98.3661 195.183 98.3512ZM192.545 91.0821H197.631C197.613 90.6877 197.513 90.3016 197.336 89.949C197.142 89.5971 196.853 89.3071 196.503 89.1122C196.08 88.8723 195.599 88.7575 195.114 88.781C194.624 88.7624 194.138 88.8769 193.708 89.1122C193.353 89.3087 193.063 89.6057 192.875 89.9664C192.689 90.3115 192.577 90.6913 192.545 91.0821Z" fill="#D50032"/>
<path d="M211.259 102.587V86.4452H214.158L214.315 87.9269C214.756 87.336 215.359 86.8876 216.051 86.6369C216.708 86.3762 217.41 86.246 218.117 86.2534C219.103 86.2238 220.074 86.5041 220.894 87.0553C221.659 87.6103 222.259 88.3635 222.63 89.2343C223.023 90.2146 223.217 91.2633 223.203 92.3197C223.221 93.3765 223.026 94.426 222.63 95.4052C222.282 96.2852 221.677 97.0388 220.894 97.5668C219.998 98.1192 218.959 98.3922 217.908 98.3512C217.41 98.3544 216.914 98.2899 216.433 98.1594C216.031 98.0654 215.648 97.9001 215.304 97.6714C215.01 97.479 214.731 97.2634 214.471 97.0264V102.587H211.259ZM217.301 95.6144C217.916 95.6679 218.531 95.5012 219.037 95.1437C219.431 94.838 219.721 94.4181 219.87 93.9409C220.039 93.4597 220.121 92.952 220.113 92.4418C220.117 91.8963 220.029 91.354 219.853 90.838C219.689 90.3497 219.38 89.9237 218.967 89.6178C218.481 89.3207 217.922 89.1636 217.353 89.1636C216.783 89.1636 216.225 89.3207 215.738 89.6178C215.315 89.9269 214.98 90.3415 214.766 90.8206C214.542 91.3128 214.43 91.8485 214.436 92.3895C214.43 92.9342 214.537 93.4743 214.749 93.9758C214.964 94.4547 215.306 94.8648 215.738 95.1611C216.212 95.4353 216.754 95.5683 217.301 95.5447V95.6144Z" fill="#D50032"/>
<path d="M234.244 103.563V100.373C234.764 100.384 235.283 100.331 235.79 100.216C236.163 100.128 236.509 99.9485 236.796 99.6935C237.101 99.4015 237.353 99.0596 237.543 98.6824L232.647 86.48H236.241L239.331 95.196L241.744 86.48H245.216L242.091 96.5731C241.931 97.1638 241.74 97.7457 241.518 98.3163C241.275 98.909 241.032 99.4843 240.755 100.06C240.488 100.591 240.168 101.093 239.8 101.559C239.453 101.987 239.036 102.352 238.567 102.639C238.224 102.884 237.85 103.083 237.456 103.232C237.038 103.365 236.608 103.452 236.171 103.494C235.531 103.553 234.888 103.576 234.244 103.563Z" fill="#D50032"/>
<path d="M255.008 98.1943V86.4451H258.115V93.4179L258.445 92.9473L258.757 92.5463L263.445 86.4626H266.24V98.2117H263.098V91.3784C262.998 91.5477 262.887 91.7107 262.768 91.8665L262.403 92.3197L257.889 98.2117L255.008 98.1943ZM260.771 85.4341C259.676 85.4974 258.594 85.1702 257.716 84.5102C257.327 84.1557 257.024 83.7175 256.829 83.2283C256.633 82.7392 256.551 82.212 256.587 81.6862H259.157C259.137 81.9095 259.169 82.1343 259.25 82.3431C259.331 82.5518 259.46 82.7387 259.625 82.889C259.971 83.1305 260.385 83.2528 260.806 83.2377C261.227 83.2581 261.643 83.1353 261.986 82.889C262.15 82.7378 262.276 82.5503 262.354 82.3414C262.433 82.1326 262.461 81.9082 262.438 81.6862H265.024C265.051 82.4189 264.87 83.144 264.504 83.778C264.17 84.3432 263.656 84.7792 263.045 85.0157C262.331 85.3422 261.556 85.5144 260.771 85.5212V85.4341Z" fill="#D50032"/>
<path d="M297.489 98.3512C296.399 98.3891 295.319 98.1301 294.364 97.6016C293.511 97.126 292.821 96.403 292.385 95.5272C291.901 94.5477 291.663 93.4648 291.69 92.372C291.669 91.2612 291.914 90.1615 292.402 89.1645C292.859 88.2736 293.557 87.5303 294.416 87.0204C295.349 86.4808 296.412 86.2094 297.489 86.236C298.287 86.2246 299.079 86.3789 299.815 86.6892C300.481 86.962 301.075 87.3856 301.551 87.9269C302.027 88.4633 302.387 89.0923 302.61 89.7747C302.855 90.5159 302.967 91.2951 302.94 92.0757C302.94 92.2849 302.94 92.494 302.94 92.6858C302.957 92.8772 302.957 93.0697 302.94 93.2611H294.919C294.962 93.6898 295.092 94.1052 295.301 94.4813C295.496 94.8573 295.799 95.1667 296.169 95.3703C296.61 95.5935 297.099 95.7014 297.593 95.6841C297.932 95.6896 298.271 95.6486 298.6 95.5621C298.892 95.4988 299.166 95.3674 299.398 95.1786C299.612 95.0202 299.775 94.8019 299.867 94.551H302.94C302.786 95.3572 302.413 96.1052 301.863 96.7126C301.339 97.2773 300.682 97.7026 299.954 97.9503C299.163 98.2324 298.328 98.3682 297.489 98.3512ZM294.85 91.0821H299.936C299.921 90.6852 299.814 90.2972 299.624 89.949C299.442 89.5941 299.157 89.3025 298.808 89.1122C298.385 88.8723 297.904 88.7575 297.419 88.781C296.929 88.7624 296.443 88.8769 296.013 89.1122C295.657 89.313 295.362 89.6086 295.162 89.9664C295.002 90.3179 294.908 90.6962 294.884 91.0821H294.85Z" fill="#D50032"/>
<path d="M313.599 98.1943V86.4452H316.707V90.96H321.133V86.4452H324.241V98.1943H321.133V93.7492H316.707V98.1943H313.599Z" fill="#D50032"/>
<path d="M340.681 98.3512C339.592 98.3848 338.513 98.1261 337.556 97.6016C336.711 97.1161 336.024 96.3957 335.577 95.5272C335.125 94.5281 334.891 93.4433 334.891 92.3459C334.891 91.2484 335.125 90.1636 335.577 89.1645C336.039 88.2773 336.736 87.5354 337.591 87.0204C338.524 86.4808 339.587 86.2094 340.664 86.236C341.462 86.2226 342.255 86.377 342.99 86.6892C343.659 86.9574 344.254 87.3817 344.726 87.9269C345.208 88.4589 345.569 89.0893 345.785 89.7747C346.031 90.5159 346.142 91.2951 346.115 92.0757C346.115 92.2849 346.115 92.494 346.115 92.6858C346.132 92.8772 346.132 93.0697 346.115 93.2611H338.095C338.137 93.6898 338.267 94.1052 338.476 94.4813C338.678 94.8585 338.986 95.1678 339.362 95.3703C339.796 95.5957 340.28 95.7039 340.768 95.6841C341.113 95.6897 341.458 95.6486 341.792 95.5621C342.084 95.4953 342.356 95.3643 342.591 95.1786C342.8 95.0149 342.962 94.7983 343.06 94.551H346.115C345.961 95.3572 345.589 96.1052 345.039 96.7126C344.52 97.2766 343.87 97.702 343.146 97.9503C342.355 98.2298 341.52 98.3656 340.681 98.3512ZM338.042 91.0821H343.129C343.111 90.6877 343.011 90.3016 342.834 89.949C342.64 89.5971 342.351 89.3071 342.001 89.1122C341.584 88.8729 341.108 88.7579 340.629 88.781C340.134 88.7601 339.642 88.8746 339.206 89.1122C338.854 89.3134 338.565 89.6092 338.372 89.9664C338.187 90.3115 338.075 90.6913 338.042 91.0821Z" fill="#D50032"/>
<path d="M356.757 102.587V86.4452H359.674L359.83 87.9269C360.274 87.3396 360.877 86.892 361.566 86.6369C362.224 86.3775 362.925 86.2473 363.632 86.2534C364.618 86.2238 365.589 86.5041 366.41 87.0553C367.174 87.6103 367.774 88.3635 368.146 89.2343C368.538 90.2146 368.733 91.2633 368.719 92.3197C368.736 93.3765 368.542 94.426 368.146 95.4052C367.798 96.2852 367.192 97.0388 366.41 97.5668C365.521 98.1218 364.486 98.3951 363.441 98.3512C362.943 98.3555 362.446 98.291 361.965 98.1594C361.558 98.0642 361.171 97.8991 360.819 97.6714C360.525 97.479 360.246 97.2634 359.986 97.0264V102.587H356.757ZM362.799 95.6144C363.414 95.6679 364.029 95.5012 364.535 95.1437C364.928 94.838 365.219 94.4181 365.368 93.9409C365.543 93.4607 365.631 92.953 365.628 92.4418C365.587 91.8564 365.44 91.2835 365.194 90.7509C365.032 90.2668 364.73 89.8421 364.326 89.5306C363.812 89.1945 363.203 89.0354 362.59 89.0774C362.035 89.0619 361.489 89.2203 361.028 89.5306C360.595 89.8337 360.253 90.2496 360.038 90.7334C359.823 91.2283 359.711 91.7622 359.708 92.3023C359.7 92.8491 359.813 93.3909 360.038 93.8886C360.241 94.3698 360.579 94.7816 361.01 95.074C361.539 95.4238 362.167 95.5892 362.799 95.5447V95.6144Z" fill="#D50032"/>
<path d="M379.187 98.1943V86.4452H387.624V89.2343H382.294V98.1943H379.187Z" fill="#D50032"/>
<path d="M399.568 85.19C399.075 85.2004 398.595 85.0335 398.214 84.7194C398.023 84.5467 397.872 84.3336 397.773 84.0955C397.674 83.8573 397.629 83.6001 397.641 83.3423C397.632 82.9663 397.735 82.5962 397.936 82.2789C398.122 82.0019 398.372 81.7746 398.665 81.6165C398.958 81.4563 399.286 81.3724 399.62 81.3724C400.111 81.3684 400.584 81.5559 400.939 81.8954C401.3 82.2693 401.502 82.7694 401.502 83.29C401.502 83.8105 401.3 84.3106 400.939 84.6845C400.561 85.0195 400.072 85.1999 399.568 85.19ZM398.04 98.1943V86.4452H401.148V98.1943H398.04Z" fill="#D50032"/>
<path d="M417.536 98.3861C416.459 98.4239 415.392 98.171 414.446 97.6539C413.613 97.1751 412.946 96.451 412.536 95.5795C412.084 94.585 411.864 93.4998 411.894 92.4069C411.869 91.2882 412.1 90.1788 412.571 89.1645C412.985 88.2768 413.657 87.5355 414.498 87.0378C415.441 86.5114 416.509 86.2523 417.588 86.2883C418.823 86.2488 420.038 86.6027 421.06 87.2993C422.036 87.9992 422.698 89.0581 422.9 90.2453H419.828C419.727 89.942 419.54 89.6751 419.289 89.4783C419.045 89.2832 418.76 89.1461 418.456 89.0774C418.151 88.994 417.835 88.9529 417.519 88.9554C417.074 88.9445 416.634 89.0401 416.234 89.2343C415.883 89.3938 415.583 89.6471 415.366 89.9664C415.158 90.3154 415.039 90.7106 415.019 91.1169H419.185V93.6446H415.001C415.011 94.0552 415.151 94.4521 415.401 94.7776C415.651 95.0956 415.98 95.342 416.355 95.4923C416.766 95.6525 417.2 95.741 417.64 95.7538C417.944 95.7525 418.247 95.7175 418.543 95.6492C418.837 95.5756 419.114 95.4453 419.359 95.2657C419.608 95.0743 419.795 94.8136 419.897 94.5162H422.952C422.79 95.316 422.425 96.0603 421.893 96.6777C421.379 97.2591 420.729 97.7025 420.001 97.9677C419.211 98.2557 418.376 98.3975 417.536 98.3861Z" fill="#D50032"/>
<path d="M443.907 98.3512C442.509 98.4215 441.136 97.968 440.052 97.0787C439.083 96.2083 438.466 95.0113 438.316 93.7143H436.58V98.1943H433.473V86.4452H436.58V90.9252H438.316C438.438 90.0529 438.752 89.2189 439.237 88.4847C439.721 87.7885 440.372 87.2252 441.129 86.8461C441.993 86.4244 442.946 86.2152 443.907 86.236C444.971 86.2109 446.023 86.4632 446.962 86.9681C447.818 87.4612 448.511 88.1942 448.958 89.0774C449.447 90.0984 449.685 91.2222 449.653 92.3546C449.681 93.4436 449.455 94.5242 448.993 95.5098C448.569 96.3934 447.884 97.1239 447.031 97.6016C446.077 98.1317 444.997 98.3909 443.907 98.3512ZM443.907 95.5446C444.477 95.5784 445.042 95.4121 445.504 95.074C445.901 94.7608 446.197 94.3361 446.354 93.8537C446.724 92.8527 446.724 91.7519 446.354 90.7509C446.194 90.2366 445.865 89.7924 445.42 89.4914C444.975 89.1904 444.441 89.0505 443.907 89.0948C443.341 89.0643 442.781 89.2171 442.309 89.5306C441.907 89.836 441.605 90.2547 441.441 90.7334C441.071 91.7523 441.071 92.8697 441.441 93.8886C441.605 94.3624 441.908 94.7755 442.309 95.074C442.759 95.3958 443.302 95.5611 443.854 95.5446H443.907Z" fill="#D50032"/>
</g>
<defs>
<clipPath id="clip0_0_4">
<rect width="450" height="112.959" fill="white"/>
</clipPath>
</defs>
</svg>
